<svg xmlns="http://www.w3.org/2000/svg" xmlns:xlink="http://www.w3.org/1999/xlink" version="1.1" viewBox="0 0 3140 3986" style="background: #111111"><defs joint-selector="defs"></defs><g joint-selector="layers"  transform="matrix(1,0,0,1,0,0)"><g ></g><g ><!--z-index:0--><!--z-index:1--><!--z-index:2--><!--z-index:3--><!--z-index:4--><!--z-index:5--><!--z-index:6--><!--z-index:7--><!--z-index:8--><!--z-index:9--><!--z-index:10--><!--z-index:11--><!--z-index:12--><!--z-index:13--><!--z-index:14--><!--z-index:15--><!--z-index:16--><!--z-index:17--><!--z-index:18--><!--z-index:19--><!--z-index:20--><!--z-index:21--><!--z-index:22--><!--z-index:23--><!--z-index:24--><!--z-index:25--><!--z-index:26--><!--z-index:27--><!--z-index:28--><!--z-index:29--><!--z-index:30--><!--z-index:31--><!--z-index:32--><!--z-index:33--><!--z-index:34--><!--z-index:35--><!--z-index:36--><!--z-index:37--><!--z-index:38--><!--z-index:39--><!--z-index:40--><!--z-index:41--><!--z-index:42--><!--z-index:43--><!--z-index:44--><!--z-index:45--><!--z-index:46--><!--z-index:47--><!--z-index:48--><!--z-index:49--><!--z-index:50--><!--z-index:51--><!--z-index:52--><!--z-index:53--><!--z-index:54--><!--z-index:55--><!--z-index:56--><!--z-index:57--><!--z-index:58--><!--z-index:59--><!--z-index:60--><!--z-index:61--><!--z-index:62--><!--z-index:63--><!--z-index:64--><!--z-index:65--><!--z-index:66--><!--z-index:67--><!--z-index:68--><!--z-index:69--><!--z-index:70--><!--z-index:71--><!--z-index:72--><!--z-index:73--><!--z-index:74--><!--z-index:75--><!--z-index:76--><!--z-index:77--><!--z-index:78--><!--z-index:79--><!--z-index:80--><!--z-index:81--><!--z-index:82--><!--z-index:83--><!--z-index:84--><!--z-index:85--><!--z-index:86--><!--z-index:87--><!--z-index:88--><!--z-index:89--><!--z-index:90--><!--z-index:91--><g   id="j_185"  transform="translate(20,3942)"><g id="v-2994"><text  id="v-2995" font-size="24px" xml:space="preserve" y="0.8em" font-weight="normal" text-anchor="start" fill="#cccccc" pointer-events="none" display="block" font-family="Open Sans, Tahoma, Arial"><tspan dy="0"  display="none">Tuesday, June 2, 2026 at 4:04 PM Eastern Daylight Time</tspan></text></g></g><!--z-index:92--><g   id="j_184"  transform="translate(20,3908)"><g id="v-2992"><text  id="v-2993" font-size="24px" xml:space="preserve" y="0.8em" font-weight="normal" text-anchor="start" fill="#cccccc" pointer-events="none" display="block" font-family="Open Sans, Tahoma, Arial"><tspan dy="0"  display="none">L2 (events): trap/syslog/translation/alarm daemons, alarm publishing/materialization and notification.</tspan></text></g></g><!--z-index:93--><g   id="j_183"  transform="translate(20,3862)"><g id="v-2990"><text  id="v-2991" font-size="36px" xml:space="preserve" y="0.8em" font-weight="normal" text-anchor="start" fill="#cccccc" pointer-events="none" display="block" font-family="Open Sans, Tahoma, Arial"><tspan dy="0"  display="none">Container View: Delta-V</tspan></text></g></g><!--z-index:94--><g   id="j_186"  transform="translate(264,3329)" style=""><g  id="v-2999" style="opacity: 1;"><rect  x="0" y="160" width="400" height="240" rx="70" id="v-3001" stroke-width="2" pointer-events="visiblePainted" fill="#e07a5f" stroke="#ca6e56" stroke-dasharray=""></rect><circle  cx="200" cy="88.88888888888889" r="88.88888888888889" id="v-3000" stroke-width="2" pointer-events="visiblePainted" fill="#e07a5f" stroke="#ca6e56" stroke-dasharray=""></circle><line  x1="80" y1="266.6666666666667" x2="80" y2="400" id="v-3007" stroke="#ca6e56" stroke-width="1" stroke-dasharray=""></line><line  x1="320" y1="266.6666666666667" x2="320" y2="400" id="v-3008" stroke="#ca6e56" stroke-width="1" stroke-dasharray=""></line><text  id="v-3002" font-size="30.799999999999997px" xml:space="preserve" y="221.2" font-weight="bold" text-anchor="middle" pointer-events="visible" font-family="Open Sans, Tahoma, Arial" fill="#fdfcf7" dominant-baseline="hanging" transform="matrix(1,0,0,1,200,0)"><tspan dy="0" >NOC / SRE</tspan></text><text  id="v-3003" font-size="15.399999999999999px" xml:space="preserve" y="260" text-anchor="middle" font-family="Open Sans, Tahoma, Arial" fill="#fdfcf7" dominant-baseline="hanging" transform="matrix(1,0,0,1,200,0)" style="display: block;"><tspan dy="0" >[Person]</tspan></text><text  id="v-3004" font-size="22px" xml:space="preserve" y="290.4" text-anchor="middle" font-family="Open Sans, Tahoma, Arial" fill="#fdfcf7" dominant-baseline="hanging" transform="matrix(1,0,0,1,200,0)" style="display: block;"><tspan dy="0" >Watches health, responds to</tspan><tspan dy="1.2em" x="0" >alerts and outages.</tspan></text><g  id="v-3005" font-weight="normal" text-anchor="middle" color="#fdfcf7" transform="matrix(1,0,0,1,197.5,368)" display="none"><g ></g><g ></g><g ></g><g ></g></g><image  id="v-3006"></image></g></g><!--z-index:95--><g   id="j_187"  transform="translate(2489,795)" style=""><g  id="v-3012" style="opacity: 1;"><rect  id="v-3013" rx="1" ry="1" stroke-width="2" pointer-events="visiblePainted" fill="#5c8aa0" stroke="#537c90" stroke-dasharray="" width="450" height="300"></rect><text  id="v-3014" font-size="30.799999999999997px" xml:space="preserve" y="91.2" font-weight="bold" text-anchor="middle" pointer-events="visible" font-family="Open Sans, Tahoma, Arial" fill="#fdfcf7" dominant-baseline="hanging" transform="matrix(1,0,0,1,225,0)"><tspan dy="0" >On-Call / Paging</tspan></text><text  id="v-3015" font-size="15.399999999999999px" xml:space="preserve" y="130" text-anchor="middle" font-family="Open Sans, Tahoma, Arial" fill="#fdfcf7" dominant-baseline="hanging" transform="matrix(1,0,0,1,225,0)" style="display: block;"><tspan dy="0" >[Software System]</tspan></text><text  id="v-3016" font-size="22px" xml:space="preserve" y="160.39999999999998" text-anchor="middle" font-family="Open Sans, Tahoma, Arial" fill="#fdfcf7" dominant-baseline="hanging" transform="matrix(1,0,0,1,225,0)" style="display: block;"><tspan dy="0" >PagerDuty, email, and chat receivers</tspan><tspan dy="1.2em" x="0" >fed by Alertmanager.</tspan></text><g  id="v-3017" color="#fdfcf7" transform="matrix(1,0,0,1,222.5,268)" display="none"><g ></g><g ></g><g ></g><g ></g></g><image  id="v-3018"></image></g></g><!--z-index:96--><g   id="j_190"  transform="translate(199,143)" style=""><g id="v-3037"><rect  id="v-3038" width="2030" height="3055" rx="0" ry="0" stroke-width="2" pointer-events="none" stroke="#053b53" fill="#111111" stroke-dasharray=""></rect><text  id="v-3039" font-size="33.599999999999994px" xml:space="preserve" y="3016" font-weight="bold" text-anchor="start" pointer-events="visible" font-family="Open Sans, Tahoma, Arial" fill="#fdfcf7" transform="matrix(1,0,0,1,15,0)"><tspan dy="0" >Delta-V</tspan></text><text  id="v-3040" font-size="16.799999999999997px" xml:space="preserve" y="3040" font-weight="normal" text-anchor="start" pointer-events="visible" font-family="Open Sans, Tahoma, Arial" fill="#fdfcf7" transform="matrix(1,0,0,1,15,0)"><tspan dy="0" >[Software System]</tspan></text><image  id="v-3041" pointer-events="visible"></image></g></g><!--z-index:97--><g   id="j_189"  transform="translate(219,896)" style=""><g id="v-3032"><rect  id="v-3033" width="490" height="2203" rx="0" ry="0" stroke-width="2" pointer-events="none" stroke="#cccccc" fill="#111111" stroke-dasharray="2,4"></rect><text  id="v-3034" font-size="33.599999999999994px" xml:space="preserve" y="2188" font-weight="bold" text-anchor="start" pointer-events="visible" font-family="Open Sans, Tahoma, Arial" fill="#cccccc" transform="matrix(1,0,0,1,15,0)"><tspan dy="0" >Event &amp; Notification Daemons</tspan></text><text  id="v-3035" font-size="16.799999999999997px" xml:space="preserve" display="none" y="2188" font-weight="normal" text-anchor="start" pointer-events="visible" font-family="Open Sans, Tahoma, Arial" fill="#cccccc" transform="matrix(1,0,0,1,15,0)"><tspan dy="0" style="fill-opacity: 0; stroke-opacity: 0;" >-</tspan></text><image  id="v-3036" pointer-events="visible"></image></g></g><!--z-index:98--><g   id="j_195"  transform="translate(969,367)" style=""><g id="v-3097"><rect  id="v-3098" width="490" height="1603" rx="0" ry="0" stroke-width="2" pointer-events="none" stroke="#cccccc" fill="#111111" stroke-dasharray="2,4"></rect><text  id="v-3099" font-size="33.599999999999994px" xml:space="preserve" y="1588" font-weight="bold" text-anchor="start" pointer-events="visible" font-family="Open Sans, Tahoma, Arial" fill="#cccccc" transform="matrix(1,0,0,1,15,0)"><tspan dy="0" >Streaming &amp; Enrichment</tspan></text><text  id="v-3100" font-size="16.799999999999997px" xml:space="preserve" display="none" y="1588" font-weight="normal" text-anchor="start" pointer-events="visible" font-family="Open Sans, Tahoma, Arial" fill="#cccccc" transform="matrix(1,0,0,1,15,0)"><tspan dy="0" style="fill-opacity: 0; stroke-opacity: 0;" >-</tspan></text><image  id="v-3101" pointer-events="visible"></image></g></g><!--z-index:99--><g   id="j_199"  transform="translate(1719,1796)" style=""><g id="v-3142"><rect  id="v-3143" width="490" height="403" rx="0" ry="0" stroke-width="2" pointer-events="none" stroke="#cccccc" fill="#111111" stroke-dasharray="2,4"></rect><text  id="v-3144" font-size="33.599999999999994px" xml:space="preserve" y="388" font-weight="bold" text-anchor="start" pointer-events="visible" font-family="Open Sans, Tahoma, Arial" fill="#cccccc" transform="matrix(1,0,0,1,15,0)"><tspan dy="0" >Edge / IPC</tspan></text><text  id="v-3145" font-size="16.799999999999997px" xml:space="preserve" display="none" y="388" font-weight="normal" text-anchor="start" pointer-events="visible" font-family="Open Sans, Tahoma, Arial" fill="#cccccc" transform="matrix(1,0,0,1,15,0)"><tspan dy="0" style="fill-opacity: 0; stroke-opacity: 0;" >-</tspan></text><image  id="v-3146" pointer-events="visible"></image></g></g><!--z-index:100--><g   id="j_201"  transform="translate(1719,163)" style=""><g id="v-3158"><rect  id="v-3159" width="490" height="403" rx="0" ry="0" stroke-width="2" pointer-events="none" stroke="#cccccc" fill="#111111" stroke-dasharray="2,4"></rect><text  id="v-3160" font-size="33.599999999999994px" xml:space="preserve" y="388" font-weight="bold" text-anchor="start" pointer-events="visible" font-family="Open Sans, Tahoma, Arial" fill="#cccccc" transform="matrix(1,0,0,1,15,0)"><tspan dy="0" >Data Stores</tspan></text><text  id="v-3161" font-size="16.799999999999997px" xml:space="preserve" display="none" y="388" font-weight="normal" text-anchor="start" pointer-events="visible" font-family="Open Sans, Tahoma, Arial" fill="#cccccc" transform="matrix(1,0,0,1,15,0)"><tspan dy="0" style="fill-opacity: 0; stroke-opacity: 0;" >-</tspan></text><image  id="v-3162" pointer-events="visible"></image></g></g><!--z-index:101--><g   id="j_203"  transform="translate(1719,775)" style=""><g id="v-3176"><rect  id="v-3177" width="490" height="403" rx="0" ry="0" stroke-width="2" pointer-events="none" stroke="#cccccc" fill="#111111" stroke-dasharray="2,4"></rect><text  id="v-3178" font-size="33.599999999999994px" xml:space="preserve" y="388" font-weight="bold" text-anchor="start" pointer-events="visible" font-family="Open Sans, Tahoma, Arial" fill="#cccccc" transform="matrix(1,0,0,1,15,0)"><tspan dy="0" >Observability</tspan></text><text  id="v-3179" font-size="16.799999999999997px" xml:space="preserve" display="none" y="388" font-weight="normal" text-anchor="start" pointer-events="visible" font-family="Open Sans, Tahoma, Arial" fill="#cccccc" transform="matrix(1,0,0,1,15,0)"><tspan dy="0" style="fill-opacity: 0; stroke-opacity: 0;" >-</tspan></text><image  id="v-3180" pointer-events="visible"></image></g></g><!--z-index:102--><g   id="j_188"  transform="translate(239,2716)" style=""><g  id="v-3025" style="opacity: 1;"><rect  id="v-3026" rx="1" ry="1" stroke-width="2" pointer-events="visiblePainted" fill="#06425c" stroke="#053b53" stroke-dasharray="" width="450" height="300"></rect><text  id="v-3027" font-size="30.799999999999997px" xml:space="preserve" y="104.4" font-weight="bold" text-anchor="middle" pointer-events="visible" font-family="Open Sans, Tahoma, Arial" fill="#fdfcf7" dominant-baseline="hanging" transform="matrix(1,0,0,1,225,0)"><tspan dy="0" >trapd</tspan></text><text  id="v-3028" font-size="15.399999999999999px" xml:space="preserve" y="143.2" text-anchor="middle" font-family="Open Sans, Tahoma, Arial" fill="#fdfcf7" dominant-baseline="hanging" transform="matrix(1,0,0,1,225,0)" style="display: block;"><tspan dy="0" >[Container: Spring Boot / Java 21]</tspan></text><text  id="v-3029" font-size="22px" xml:space="preserve" y="173.6" text-anchor="middle" font-family="Open Sans, Tahoma, Arial" fill="#fdfcf7" dominant-baseline="hanging" transform="matrix(1,0,0,1,225,0)" style="display: block;"><tspan dy="0" >SNMP trap reception and eventing.</tspan></text><g  id="v-3030" color="#fdfcf7" transform="matrix(1,0,0,1,222.5,268)" display="none"><g ></g><g ></g><g ></g><g ></g></g><image  id="v-3031"></image></g></g><!--z-index:103--><g   id="j_191"  transform="translate(239,2116)" style=""><g  id="v-3048" style="opacity: 1;"><rect  id="v-3049" rx="1" ry="1" stroke-width="2" pointer-events="visiblePainted" fill="#06425c" stroke="#053b53" stroke-dasharray="" width="450" height="300"></rect><text  id="v-3050" font-size="30.799999999999997px" xml:space="preserve" y="104.4" font-weight="bold" text-anchor="middle" pointer-events="visible" font-family="Open Sans, Tahoma, Arial" fill="#fdfcf7" dominant-baseline="hanging" transform="matrix(1,0,0,1,225,0)"><tspan dy="0" >syslogd</tspan></text><text  id="v-3051" font-size="15.399999999999999px" xml:space="preserve" y="143.2" text-anchor="middle" font-family="Open Sans, Tahoma, Arial" fill="#fdfcf7" dominant-baseline="hanging" transform="matrix(1,0,0,1,225,0)" style="display: block;"><tspan dy="0" >[Container: Spring Boot / Java 21]</tspan></text><text  id="v-3052" font-size="22px" xml:space="preserve" y="173.6" text-anchor="middle" font-family="Open Sans, Tahoma, Arial" fill="#fdfcf7" dominant-baseline="hanging" transform="matrix(1,0,0,1,225,0)" style="display: block;"><tspan dy="0" >Syslog reception and eventing.</tspan></text><g  id="v-3053" color="#fdfcf7" transform="matrix(1,0,0,1,222.5,268)" display="none"><g ></g><g ></g><g ></g><g ></g></g><image  id="v-3054"></image></g></g><!--z-index:104--><g   id="j_192"  transform="translate(239,1516)" style=""><g  id="v-3061" style="opacity: 1;"><rect  id="v-3062" rx="1" ry="1" stroke-width="2" pointer-events="visiblePainted" fill="#06425c" stroke="#053b53" stroke-dasharray="" width="450" height="300"></rect><text  id="v-3063" font-size="30.799999999999997px" xml:space="preserve" y="104.4" font-weight="bold" text-anchor="middle" pointer-events="visible" font-family="Open Sans, Tahoma, Arial" fill="#fdfcf7" dominant-baseline="hanging" transform="matrix(1,0,0,1,225,0)"><tspan dy="0" >eventtranslator</tspan></text><text  id="v-3064" font-size="15.399999999999999px" xml:space="preserve" y="143.2" text-anchor="middle" font-family="Open Sans, Tahoma, Arial" fill="#fdfcf7" dominant-baseline="hanging" transform="matrix(1,0,0,1,225,0)" style="display: block;"><tspan dy="0" >[Container: Spring Boot / Java 21]</tspan></text><text  id="v-3065" font-size="22px" xml:space="preserve" y="173.6" text-anchor="middle" font-family="Open Sans, Tahoma, Arial" fill="#fdfcf7" dominant-baseline="hanging" transform="matrix(1,0,0,1,225,0)" style="display: block;"><tspan dy="0" >Event translation rules.</tspan></text><g  id="v-3066" color="#fdfcf7" transform="matrix(1,0,0,1,222.5,268)" display="none"><g ></g><g ></g><g ></g><g ></g></g><image  id="v-3067"></image></g></g><!--z-index:105--><g   id="j_193"  transform="translate(239,916)" style=""><g  id="v-3074" style="opacity: 1;"><rect  id="v-3075" rx="1" ry="1" stroke-width="2" pointer-events="visiblePainted" fill="#06425c" stroke="#053b53" stroke-dasharray="" width="450" height="300"></rect><text  id="v-3076" font-size="30.799999999999997px" xml:space="preserve" y="104.4" font-weight="bold" text-anchor="middle" pointer-events="visible" font-family="Open Sans, Tahoma, Arial" fill="#fdfcf7" dominant-baseline="hanging" transform="matrix(1,0,0,1,225,0)"><tspan dy="0" >alarmd</tspan></text><text  id="v-3077" font-size="15.399999999999999px" xml:space="preserve" y="143.2" text-anchor="middle" font-family="Open Sans, Tahoma, Arial" fill="#fdfcf7" dominant-baseline="hanging" transform="matrix(1,0,0,1,225,0)" style="display: block;"><tspan dy="0" >[Container: Spring Boot / Java 21]</tspan></text><text  id="v-3078" font-size="22px" xml:space="preserve" y="173.6" text-anchor="middle" font-family="Open Sans, Tahoma, Arial" fill="#fdfcf7" dominant-baseline="hanging" transform="matrix(1,0,0,1,225,0)" style="display: block;"><tspan dy="0" >Alarm reduction from events.</tspan></text><g  id="v-3079" color="#fdfcf7" transform="matrix(1,0,0,1,222.5,268)" display="none"><g ></g><g ></g><g ></g><g ></g></g><image  id="v-3080"></image></g></g><!--z-index:106--><g   id="j_194"  transform="translate(989,1587)" style=""><g  id="v-3090" style="opacity: 1;"><rect  id="v-3091" rx="1" ry="1" stroke-width="2" pointer-events="visiblePainted" fill="#06425c" stroke="#053b53" stroke-dasharray="" width="450" height="300"></rect><text  id="v-3092" font-size="30.799999999999997px" xml:space="preserve" y="104.4" font-weight="bold" text-anchor="middle" pointer-events="visible" font-family="Open Sans, Tahoma, Arial" fill="#fdfcf7" dominant-baseline="hanging" transform="matrix(1,0,0,1,225,0)"><tspan dy="0" >alarms-kafka-publisher</tspan></text><text  id="v-3093" font-size="15.399999999999999px" xml:space="preserve" y="143.2" text-anchor="middle" font-family="Open Sans, Tahoma, Arial" fill="#fdfcf7" dominant-baseline="hanging" transform="matrix(1,0,0,1,225,0)" style="display: block;"><tspan dy="0" >[Container: Spring Boot / Java 21]</tspan></text><text  id="v-3094" font-size="22px" xml:space="preserve" y="173.6" text-anchor="middle" font-family="Open Sans, Tahoma, Arial" fill="#fdfcf7" dominant-baseline="hanging" transform="matrix(1,0,0,1,225,0)" style="display: block;"><tspan dy="0" >Publishes alarm state to Kafka.</tspan></text><g  id="v-3095" color="#fdfcf7" transform="matrix(1,0,0,1,222.5,268)" display="none"><g ></g><g ></g><g ></g><g ></g></g><image  id="v-3096"></image></g></g><!--z-index:107--><g   id="j_196"  transform="translate(989,987)" style=""><g  id="v-3111" style="opacity: 1;"><rect  id="v-3112" rx="1" ry="1" stroke-width="2" pointer-events="visiblePainted" fill="#06425c" stroke="#053b53" stroke-dasharray="" width="450" height="300"></rect><text  id="v-3113" font-size="30.799999999999997px" xml:space="preserve" y="104.4" font-weight="bold" text-anchor="middle" pointer-events="visible" font-family="Open Sans, Tahoma, Arial" fill="#fdfcf7" dominant-baseline="hanging" transform="matrix(1,0,0,1,225,0)"><tspan dy="0" >alarms-materializer</tspan></text><text  id="v-3114" font-size="15.399999999999999px" xml:space="preserve" y="143.2" text-anchor="middle" font-family="Open Sans, Tahoma, Arial" fill="#fdfcf7" dominant-baseline="hanging" transform="matrix(1,0,0,1,225,0)" style="display: block;"><tspan dy="0" >[Container: Spring Boot / Java 21]</tspan></text><text  id="v-3115" font-size="22px" xml:space="preserve" y="173.6" text-anchor="middle" font-family="Open Sans, Tahoma, Arial" fill="#fdfcf7" dominant-baseline="hanging" transform="matrix(1,0,0,1,225,0)" style="display: block;"><tspan dy="0" >Projects alarm state into PostgreSQL.</tspan></text><g  id="v-3116" color="#fdfcf7" transform="matrix(1,0,0,1,210,268)" display="none"><g  transform="translate(5 0)"><svg xmlns="http://www.w3.org/2000/svg" width="20" height="20" fill="currentColor" viewBox="0 0 16 16"><path fill-rule="evenodd" d="M6.5 12a5.5 5.5 0 1 0 0-11 5.5 5.5 0 0 0 0 11zM13 6.5a6.5 6.5 0 1 1-13 0 6.5 6.5 0 0 1 13 0z"></path><path d="M10.344 11.742c.03.04.062.078.098.115l3.85 3.85a1 1 0 0 0 1.415-1.414l-3.85-3.85a1.007 1.007 0 0 0-.115-.1 6.538 6.538 0 0 1-1.398 1.4z"></path><path fill-rule="evenodd" d="M6.5 3a.5.5 0 0 1 .5.5V6h2.5a.5.5 0 0 1 0 1H7v2.5a.5.5 0 0 1-1 0V7H3.5a.5.5 0 0 1 0-1H6V3.5a.5.5 0 0 1 .5-.5z"></path></svg></g><g ></g><g ></g><g ></g></g><image  id="v-3117"></image></g></g><!--z-index:108--><g   id="j_197"  transform="translate(989,387)" style=""><g  id="v-3124" style="opacity: 1;"><rect  id="v-3125" rx="1" ry="1" stroke-width="2" pointer-events="visiblePainted" fill="#06425c" stroke="#053b53" stroke-dasharray="" width="450" height="300"></rect><text  id="v-3126" font-size="30.799999999999997px" xml:space="preserve" y="91.2" font-weight="bold" text-anchor="middle" pointer-events="visible" font-family="Open Sans, Tahoma, Arial" fill="#fdfcf7" dominant-baseline="hanging" transform="matrix(1,0,0,1,225,0)"><tspan dy="0" >alerts-forwarder</tspan></text><text  id="v-3127" font-size="15.399999999999999px" xml:space="preserve" y="130" text-anchor="middle" font-family="Open Sans, Tahoma, Arial" fill="#fdfcf7" dominant-baseline="hanging" transform="matrix(1,0,0,1,225,0)" style="display: block;"><tspan dy="0" >[Container: Spring Boot / Java 21]</tspan></text><text  id="v-3128" font-size="22px" xml:space="preserve" y="160.39999999999998" text-anchor="middle" font-family="Open Sans, Tahoma, Arial" fill="#fdfcf7" dominant-baseline="hanging" transform="matrix(1,0,0,1,225,0)" style="display: block;"><tspan dy="0" >Forwards alarm/alert state to</tspan><tspan dy="1.2em" x="0" >Alertmanager.</tspan></text><g  id="v-3129" color="#fdfcf7" transform="matrix(1,0,0,1,222.5,268)" display="none"><g ></g><g ></g><g ></g><g ></g></g><image  id="v-3130"></image></g></g><!--z-index:109--><g   id="j_198"  transform="translate(1739,1816)" style=""><g  id="v-3134" style="opacity: 1;"><path  d="M 30,0 a 30,150 0,0,1 0 300 a 30,150 0,0,1 0 -300 l 390,0 a 30,150 0,0,1 0 300 l -390,0" id="v-3135" stroke-width="2" pointer-events="visiblePainted" fill="#19c3b2" stroke="#17b0a0" stroke-dasharray=""></path><rect  id="v-3136" stroke-width="0" pointer-events="visiblePainted" fill="none" stroke="none" width="420" height="300" x="30" y="0"></rect><text  id="v-3137" font-size="30.799999999999997px" xml:space="preserve" y="91.2" font-weight="bold" text-anchor="middle" pointer-events="visible" font-family="Open Sans, Tahoma, Arial" fill="#08313f" dominant-baseline="hanging" transform="matrix(1,0,0,1,240,0)"><tspan dy="0" >Kafka</tspan></text><text  id="v-3138" font-size="15.399999999999999px" xml:space="preserve" y="130" text-anchor="middle" font-family="Open Sans, Tahoma, Arial" fill="#08313f" dominant-baseline="hanging" transform="matrix(1,0,0,1,240,0)" style="display: block;"><tspan dy="0" >[Container: Apache Kafka]</tspan></text><text  id="v-3139" font-size="22px" xml:space="preserve" y="160.39999999999998" text-anchor="middle" font-family="Open Sans, Tahoma, Arial" fill="#08313f" dominant-baseline="hanging" transform="matrix(1,0,0,1,240,0)" style="display: block;"><tspan dy="0" >Event + RPC spine and sink</tspan><tspan dy="1.2em" x="0" >transport.</tspan></text><g  id="v-3140" font-weight="normal" text-anchor="middle" color="#08313f" transform="matrix(1,0,0,1,237.5,268)" display="none"><g ></g><g ></g><g ></g><g ></g></g><image  id="v-3141"></image></g></g><!--z-index:110--><g   id="j_200"  transform="translate(1739,183)" style=""><g  id="v-3150" style="opacity: 1;"><path  d="M 0,30 a 225,30 0,0,0 450 0 a 225,30 0,0,0 -450 0 l 0,240 a 225,30 0,0,0 450 0 l 0,-240" id="v-3151" stroke-width="2" pointer-events="visiblePainted" fill="#0e7c9d" stroke="#0d708d" stroke-dasharray=""></path><rect  id="v-3152" stroke-width="0" pointer-events="visiblePainted" fill="none" stroke="none" width="450" height="270" x="0" y="30"></rect><text  id="v-3153" font-size="30.799999999999997px" xml:space="preserve" y="119.4" font-weight="bold" text-anchor="middle" pointer-events="visible" font-family="Open Sans, Tahoma, Arial" fill="#fdfcf7" dominant-baseline="hanging" transform="matrix(1,0,0,1,225,0)"><tspan dy="0" >PostgreSQL</tspan></text><text  id="v-3154" font-size="15.399999999999999px" xml:space="preserve" y="158.2" text-anchor="middle" font-family="Open Sans, Tahoma, Arial" fill="#fdfcf7" dominant-baseline="hanging" transform="matrix(1,0,0,1,225,0)" style="display: block;"><tspan dy="0" >[Container: PostgreSQL 15]</tspan></text><text  id="v-3155" font-size="22px" xml:space="preserve" y="188.6" text-anchor="middle" font-family="Open Sans, Tahoma, Arial" fill="#fdfcf7" dominant-baseline="hanging" transform="matrix(1,0,0,1,225,0)" style="display: block;"><tspan dy="0" >Nodes, events, alarms, outages.</tspan></text><g  id="v-3156" font-weight="normal" text-anchor="middle" color="#fdfcf7" transform="matrix(1,0,0,1,222.5,268)" display="none"><g ></g><g ></g><g ></g><g ></g></g><image  id="v-3157"></image></g></g><!--z-index:111--><g   id="j_202"  transform="translate(1739,795)" style=""><g  id="v-3169" style="opacity: 1;"><rect  id="v-3170" rx="1" ry="1" stroke-width="2" pointer-events="visiblePainted" fill="#f6d04d" stroke="#ddbb45" stroke-dasharray="" width="450" height="300"></rect><text  id="v-3171" font-size="30.799999999999997px" xml:space="preserve" y="91.2" font-weight="bold" text-anchor="middle" pointer-events="visible" font-family="Open Sans, Tahoma, Arial" fill="#08313f" dominant-baseline="hanging" transform="matrix(1,0,0,1,225,0)"><tspan dy="0" >Alertmanager</tspan></text><text  id="v-3172" font-size="15.399999999999999px" xml:space="preserve" y="130" text-anchor="middle" font-family="Open Sans, Tahoma, Arial" fill="#08313f" dominant-baseline="hanging" transform="matrix(1,0,0,1,225,0)" style="display: block;"><tspan dy="0" >[Container: Prometheus Alertmanager]</tspan></text><text  id="v-3173" font-size="22px" xml:space="preserve" y="160.39999999999998" text-anchor="middle" font-family="Open Sans, Tahoma, Arial" fill="#08313f" dominant-baseline="hanging" transform="matrix(1,0,0,1,225,0)" style="display: block;"><tspan dy="0" >Alert routing, grouping and</tspan><tspan dy="1.2em" x="0" >notification.</tspan></text><g  id="v-3174" color="#08313f" transform="matrix(1,0,0,1,222.5,268)" display="none"><g ></g><g ></g><g ></g><g ></g></g><image  id="v-3175"></image></g></g><!--z-index:112--><g   id="j_204" ><path  stroke="#a9c7d1" d="M 632 1216 L 1046 1587" id="v-3190" stroke-width="2" stroke-dasharray="8 8" fill="none" style="opacity: 1;"></path><path  fill="black" stroke="black" d="M 0 0 0 0" transform="matrix(0.7452676217369142,0.6667654550069341,-0.6667654550069341,0.7452676217369142,631.6599731445312,1216)"></path><path  fill="#a9c7d1" stroke="#a9c7d1" d="M 20 0 L 0 10 L 20 20 z" id="v-3192" transform="matrix(-0.7452677105220985,-0.6667653557685413,0.6667653557685413,-0.7452677105220985,1039.672352649098,1594.4527281238438)" style="opacity: 1;"></path><path  d="M 632 1216 L 1046 1587" id="v-3191" fill="none" style="cursor: auto; pointer-events: visiblepainted;"></path><g ><g id="v-3184"  label-idx="0" cursor="move" transform="matrix(1,0,0,1,839,1401.5)" style="cursor: default; opacity: 1;"><rect joint-selector="rect" id="v-3187" fill="#111111" rx="3" ry="3" pointer-events="none" width="127.08529663085938" height="32.38178253173828" transform="matrix(1,0,0,1,-63.5,-16.1)"></rect><text joint-selector="text" id="v-3186" font-size="24px" xml:space="preserve" y="0.8em" fill="#a9c7d1" text-anchor="middle" pointer-events="none" font-family="Open Sans, Tahoma, Arial" font-weight="normal" transform="matrix(1,0,0,1,0,-10)"><tspan dy="0" >Alarm rows</tspan></text></g><g id="v-3185"  label-idx="1" cursor="move" transform="matrix(1,0,0,1,829,1413.5)" style="cursor: default; opacity: 1;"><rect joint-selector="rect" id="v-3189" fill="#ffffff" rx="3" ry="3"  width="0" height="0" transform="matrix(1,0,0,1,0,0)" display="none"></rect><text joint-selector="text" id="v-3188" fill="#000000" font-size="14" text-anchor="middle" pointer-events="none"></text></g></g><g  display="none" style="display: none;"></g><g  id="v-3194" display="none"><g  id="v-3182"><path  end="source" d="M 26 0 L 0 13 L 26 26 z"></path></g><g  id="v-3183"><path  end="target" d="M 26 0 L 0 13 L 26 26 z"></path></g></g><g  id="v-3193" display="none"><g  id="v-3181" transform="translate(661.7889429595739, 1242.694922314014) "><g  event="remove"><circle r="11"></circle><path transform="scale(.8) translate(-16, -16)" d="M24.778,21.419 19.276,15.917 24.777,10.415 21.949,7.585 16.447,13.087 10.945,7.585 8.117,10.415 13.618,15.917 8.116,21.419 10.946,24.248 16.447,18.746 21.948,24.248z"></path><title>Remove link.</title></g><g  event="link:options"><circle r="11" transform="translate(25)"></circle><path fill="white" transform="scale(.55) translate(29, -16)" d="M31.229,17.736c0.064-0.571,0.104-1.148,0.104-1.736s-0.04-1.166-0.104-1.737l-4.377-1.557c-0.218-0.716-0.504-1.401-0.851-2.05l1.993-4.192c-0.725-0.91-1.549-1.734-2.458-2.459l-4.193,1.994c-0.647-0.347-1.334-0.632-2.049-0.849l-1.558-4.378C17.165,0.708,16.588,0.667,16,0.667s-1.166,0.041-1.737,0.105L12.707,5.15c-0.716,0.217-1.401,0.502-2.05,0.849L6.464,4.005C5.554,4.73,4.73,5.554,4.005,6.464l1.994,4.192c-0.347,0.648-0.632,1.334-0.849,2.05l-4.378,1.557C0.708,14.834,0.667,15.412,0.667,16s0.041,1.165,0.105,1.736l4.378,1.558c0.217,0.715,0.502,1.401,0.849,2.049l-1.994,4.193c0.725,0.909,1.549,1.733,2.459,2.458l4.192-1.993c0.648,0.347,1.334,0.633,2.05,0.851l1.557,4.377c0.571,0.064,1.148,0.104,1.737,0.104c0.588,0,1.165-0.04,1.736-0.104l1.558-4.377c0.715-0.218,1.399-0.504,2.049-0.851l4.193,1.993c0.909-0.725,1.733-1.549,2.458-2.458l-1.993-4.193c0.347-0.647,0.633-1.334,0.851-2.049L31.229,17.736zM16,20.871c-2.69,0-4.872-2.182-4.872-4.871c0-2.69,2.182-4.872,4.872-4.872c2.689,0,4.871,2.182,4.871,4.872C20.871,18.689,18.689,20.871,16,20.871z"></path><title>Link options.</title></g></g></g></g><!--z-index:113--><g   id="j_205" ><path  stroke="#a9c7d1" d="M 1871 1816 L 1548 1295 C 1544.6666666666665 1289.6666666666665 1539.9999999999998 1285.6666666666665 1534 1283 L 1439 1240" id="v-3211" stroke-width="2" stroke-dasharray="8 8" fill="none" style="opacity: 1;"></path><path  fill="black" stroke="black" d="M 0 0 0 0" transform="matrix(-0.5269628572900769,-0.8498883144488327,0.8498883144488327,-0.5269628572900769,1871,1816)"></path><path  fill="#a9c7d1" stroke="#a9c7d1" d="M 20 0 L 0 10 L 20 20 z" id="v-3213" transform="matrix(0.9098804671225399,0.4148705045539737,-0.4148705045539737,0.9098804671225399,1443.1486552571268,1230.48125004886)" style="opacity: 1;"></path><path  d="M 1871 1816 L 1548 1295 C 1544.6666666666665 1289.6666666666665 1539.9999999999998 1285.6666666666665 1534 1283 L 1439 1240" id="v-3212" fill="none" style="cursor: auto; pointer-events: visiblepainted;"></path><g ><g id="v-3202"  label-idx="0" cursor="move" transform="matrix(1,0,0,1,1677.095458984375,1489.8314208984375)" style="cursor: default; opacity: 1;"><rect joint-selector="rect" id="v-3206" fill="#111111" rx="3" ry="3" pointer-events="none" width="129.63711547851562" height="61.18178367614746" transform="matrix(1,0,0,1,-64.8,-30.5)"></rect><text joint-selector="text" id="v-3205" font-size="24px" xml:space="preserve" y="0.8em" fill="#a9c7d1" text-anchor="middle" pointer-events="none" font-family="Open Sans, Tahoma, Arial" font-weight="normal" transform="matrix(1,0,0,1,0,-24.4)"><tspan dy="0" >Alarm-state</tspan><tspan dy="1.2em" x="0" >records</tspan></text></g><g id="v-3203"  label-idx="1" cursor="move" transform="matrix(1,0,0,1,1677.095458984375,1534.63134765625)" style="cursor: default; opacity: 1;"><rect joint-selector="rect" id="v-3208" fill="#111111" rx="3" ry="3"  pointer-events="none" width="54.42427062988281" height="22.526458740234375" transform="matrix(1,0,0,1,-27.2,-11.3)" style="display: block;"></rect><text joint-selector="text" id="v-3207" font-size="16.799999999999997px" xml:space="preserve" y="0.8em" fill="#a9c7d1" text-anchor="middle" pointer-events="none"  font-family="Open Sans, Tahoma, Arial" font-weight="normal" transform="matrix(1,0,0,1,0,-6.4)" style="display: block;"><tspan dy="0" >[Kafka]</tspan></text></g><g id="v-3204"  label-idx="2" cursor="move" transform="matrix(1,0,0,1,1667.095458984375,1543.0313720703125)" style="cursor: default; opacity: 1;"><rect joint-selector="rect" id="v-3210" fill="#ffffff" rx="3" ry="3"  width="0" height="0" transform="matrix(1,0,0,1,0,0)" display="none"></rect><text joint-selector="text" id="v-3209" fill="#000000" font-size="14" text-anchor="middle" pointer-events="none"></text></g></g><g  display="none" style="display: none;"><g  transform="translate(1543, 1287)" id="v-3455"><circle  idx="0" r="10"></circle><path  idx="0" d="M16,5.333c-7.732,0-14,4.701-14,10.5c0,1.982,0.741,3.833,2.016,5.414L2,25.667l5.613-1.441c2.339,1.317,5.237,2.107,8.387,2.107c7.732,0,14-4.701,14-10.5C30,10.034,23.732,5.333,16,5.333z" transform="translate(5, -33)"></path><path  idx="0" transform="scale(.8) translate(9.5, -37)" d="M24.778,21.419 19.276,15.917 24.777,10.415 21.949,7.585 16.447,13.087 10.945,7.585 8.117,10.415 13.618,15.917 8.116,21.419 10.946,24.248 16.447,18.746 21.948,24.248z"><title>Remove vertex.</title></path></g></g><g  id="v-3215" display="none"><g  id="v-3200"><path  end="source" d="M 26 0 L 0 13 L 26 26 z"></path></g><g  id="v-3201"><path  end="target" d="M 26 0 L 0 13 L 26 26 z"></path></g></g><g  id="v-3214" display="none"><g  id="v-3198" transform="translate(1849.9233559402587, 1782.0033078788692) "><g  event="remove"><circle r="11"></circle><path transform="scale(.8) translate(-16, -16)" d="M24.778,21.419 19.276,15.917 24.777,10.415 21.949,7.585 16.447,13.087 10.945,7.585 8.117,10.415 13.618,15.917 8.116,21.419 10.946,24.248 16.447,18.746 21.948,24.248z"></path><title>Remove link.</title></g><g  event="link:options"><circle r="11" transform="translate(25)"></circle><path fill="white" transform="scale(.55) translate(29, -16)" d="M31.229,17.736c0.064-0.571,0.104-1.148,0.104-1.736s-0.04-1.166-0.104-1.737l-4.377-1.557c-0.218-0.716-0.504-1.401-0.851-2.05l1.993-4.192c-0.725-0.91-1.549-1.734-2.458-2.459l-4.193,1.994c-0.647-0.347-1.334-0.632-2.049-0.849l-1.558-4.378C17.165,0.708,16.588,0.667,16,0.667s-1.166,0.041-1.737,0.105L12.707,5.15c-0.716,0.217-1.401,0.502-2.05,0.849L6.464,4.005C5.554,4.73,4.73,5.554,4.005,6.464l1.994,4.192c-0.347,0.648-0.632,1.334-0.849,2.05l-4.378,1.557C0.708,14.834,0.667,15.412,0.667,16s0.041,1.165,0.105,1.736l4.378,1.558c0.217,0.715,0.502,1.401,0.849,2.049l-1.994,4.193c0.725,0.909,1.549,1.733,2.459,2.458l4.192-1.993c0.648,0.347,1.334,0.633,2.05,0.851l1.557,4.377c0.571,0.064,1.148,0.104,1.737,0.104c0.588,0,1.165-0.04,1.736-0.104l1.558-4.377c0.715-0.218,1.399-0.504,2.049-0.851l4.193,1.993c0.909-0.725,1.733-1.549,2.458-2.458l-1.993-4.193c0.347-0.647,0.633-1.334,0.851-2.049L31.229,17.736zM16,20.871c-2.69,0-4.872-2.182-4.872-4.871c0-2.69,2.182-4.872,4.872-4.872c2.689,0,4.871,2.182,4.871,4.872C20.871,18.689,18.689,20.871,16,20.871z"></path><title>Link options.</title></g></g></g></g><!--z-index:114--><g   id="j_206" ><path  stroke="#a9c7d1" d="M 689 2822 L 1533 2656 C 1539.6666666666665 2654.6666666666665 1544.6666666666665 2651 1548 2645 L 1872 2116" id="v-3232" stroke-width="2" stroke-dasharray="8 8" fill="none" style="opacity: 1;"></path><path  fill="black" stroke="black" d="M 0 0 0 0" transform="matrix(0.9812401047447393,-0.1927896699528608,0.1927896699528608,0.9812401047447393,689,2821.7900390625)"></path><path  fill="#a9c7d1" stroke="#a9c7d1" d="M 20 0 L 0 10 L 20 20 z" id="v-3234" transform="matrix(-0.5219488288780214,0.8529767992348103,-0.8529767992348103,-0.5219488288780214,1880.7397347967533,2121.219505452682)" style="opacity: 1;"></path><path  d="M 689 2822 L 1533 2656 C 1539.6666666666665 2654.6666666666665 1544.6666666666665 2651 1548 2645 L 1872 2116" id="v-3233" fill="none" style="cursor: auto; pointer-events: visiblepainted;"></path><g ><g id="v-3223"  label-idx="0" cursor="move" transform="matrix(1,0,0,1,1424.777587890625,2663.885498046875)" style="cursor: default; opacity: 1;"><rect joint-selector="rect" id="v-3227" fill="#111111" rx="3" ry="3" pointer-events="none" width="184.32537841796875" height="61.18178367614746" transform="matrix(1,0,0,1,-92.2,-30.5)"></rect><text joint-selector="text" id="v-3226" font-size="24px" xml:space="preserve" y="0.8em" fill="#a9c7d1" text-anchor="middle" pointer-events="none" font-family="Open Sans, Tahoma, Arial" font-weight="normal" transform="matrix(1,0,0,1,0,-24.4)"><tspan dy="0" >Produces events</tspan><tspan dy="1.2em" x="0" >from traps</tspan></text></g><g id="v-3224"  label-idx="1" cursor="move" transform="matrix(1,0,0,1,1424.777587890625,2708.685546875)" style="cursor: default; opacity: 1;"><rect joint-selector="rect" id="v-3229" fill="#111111" rx="3" ry="3"  pointer-events="none" width="54.42427062988281" height="22.526458740234375" transform="matrix(1,0,0,1,-27.2,-11.3)" style="display: block;"></rect><text joint-selector="text" id="v-3228" font-size="16.799999999999997px" xml:space="preserve" y="0.8em" fill="#a9c7d1" text-anchor="middle" pointer-events="none"  font-family="Open Sans, Tahoma, Arial" font-weight="normal" transform="matrix(1,0,0,1,0,-6.4)" style="display: block;"><tspan dy="0" >[Kafka]</tspan></text></g><g id="v-3225"  label-idx="2" cursor="move" transform="matrix(1,0,0,1,1414.777587890625,2717.08544921875)" style="cursor: default; opacity: 1;"><rect joint-selector="rect" id="v-3231" fill="#ffffff" rx="3" ry="3"  width="0" height="0" transform="matrix(1,0,0,1,0,0)" display="none"></rect><text joint-selector="text" id="v-3230" fill="#000000" font-size="14" text-anchor="middle" pointer-events="none"></text></g></g><g  display="none" style="display: none;"><g  transform="translate(1543, 2654)" id="v-3456"><circle  idx="0" r="10"></circle><path  idx="0" d="M16,5.333c-7.732,0-14,4.701-14,10.5c0,1.982,0.741,3.833,2.016,5.414L2,25.667l5.613-1.441c2.339,1.317,5.237,2.107,8.387,2.107c7.732,0,14-4.701,14-10.5C30,10.034,23.732,5.333,16,5.333z" transform="translate(5, -33)"></path><path  idx="0" transform="scale(.8) translate(9.5, -37)" d="M24.778,21.419 19.276,15.917 24.777,10.415 21.949,7.585 16.447,13.087 10.945,7.585 8.117,10.415 13.618,15.917 8.116,21.419 10.946,24.248 16.447,18.746 21.948,24.248z"><title>Remove vertex.</title></path></g></g><g  id="v-3236" display="none"><g  id="v-3221"><path  end="source" d="M 26 0 L 0 13 L 26 26 z"></path></g><g  id="v-3222"><path  end="target" d="M 26 0 L 0 13 L 26 26 z"></path></g></g><g  id="v-3235" display="none"><g  id="v-3219" transform="translate(728.2480669925519, 2814.280593458811) "><g  event="remove"><circle r="11"></circle><path transform="scale(.8) translate(-16, -16)" d="M24.778,21.419 19.276,15.917 24.777,10.415 21.949,7.585 16.447,13.087 10.945,7.585 8.117,10.415 13.618,15.917 8.116,21.419 10.946,24.248 16.447,18.746 21.948,24.248z"></path><title>Remove link.</title></g><g  event="link:options"><circle r="11" transform="translate(25)"></circle><path fill="white" transform="scale(.55) translate(29, -16)" d="M31.229,17.736c0.064-0.571,0.104-1.148,0.104-1.736s-0.04-1.166-0.104-1.737l-4.377-1.557c-0.218-0.716-0.504-1.401-0.851-2.05l1.993-4.192c-0.725-0.91-1.549-1.734-2.458-2.459l-4.193,1.994c-0.647-0.347-1.334-0.632-2.049-0.849l-1.558-4.378C17.165,0.708,16.588,0.667,16,0.667s-1.166,0.041-1.737,0.105L12.707,5.15c-0.716,0.217-1.401,0.502-2.05,0.849L6.464,4.005C5.554,4.73,4.73,5.554,4.005,6.464l1.994,4.192c-0.347,0.648-0.632,1.334-0.849,2.05l-4.378,1.557C0.708,14.834,0.667,15.412,0.667,16s0.041,1.165,0.105,1.736l4.378,1.558c0.217,0.715,0.502,1.401,0.849,2.049l-1.994,4.193c0.725,0.909,1.549,1.733,2.459,2.458l4.192-1.993c0.648,0.347,1.334,0.633,2.05,0.851l1.557,4.377c0.571,0.064,1.148,0.104,1.737,0.104c0.588,0,1.165-0.04,1.736-0.104l1.558-4.377c0.715-0.218,1.399-0.504,2.049-0.851l4.193,1.993c0.909-0.725,1.733-1.549,2.458-2.458l-1.993-4.193c0.347-0.647,0.633-1.334,0.851-2.049L31.229,17.736zM16,20.871c-2.69,0-4.872-2.182-4.872-4.871c0-2.69,2.182-4.872,4.872-4.872c2.689,0,4.871,2.182,4.871,4.872C20.871,18.689,18.689,20.871,16,20.871z"></path><title>Link options.</title></g></g></g></g><!--z-index:115--><g   id="j_207" ><path  stroke="#a9c7d1" d="M 666 2416 L 877 2573 C 882.3333333333333 2577 888.3333333333333 2579 895 2579 L 1533 2579 C 1539.6666666666665 2579 1544.9999999999998 2576.333333333333 1549 2571 L 1861 2116" id="v-3254" stroke-width="2" stroke-dasharray="8 8" fill="none" style="opacity: 1;"></path><path  fill="black" stroke="black" d="M 0 0 0 0" transform="matrix(0.802505489211971,0.596644734984442,-0.596644734984442,0.802505489211971,665.760009765625,2416)"></path><path  fill="#a9c7d1" stroke="#a9c7d1" d="M 20 0 L 0 10 L 20 20 z" id="v-3256" transform="matrix(-0.5661268087845872,0.8243181645307711,-0.8243181645307711,-0.5661268087845872,1869.223175319091,2121.661250505038)" style="opacity: 1;"></path><path  d="M 666 2416 L 877 2573 C 882.3333333333333 2577 888.3333333333333 2579 895 2579 L 1533 2579 C 1539.6666666666665 2579 1544.9999999999998 2576.333333333333 1549 2571 L 1861 2116" id="v-3255" fill="none" style="cursor: auto; pointer-events: visiblepainted;"></path><g ><g id="v-3245"  label-idx="0" cursor="move" transform="matrix(1,0,0,1,1357.9930419921875,2565.60009765625)" style="cursor: default; opacity: 1;"><rect joint-selector="rect" id="v-3249" fill="#111111" rx="3" ry="3" pointer-events="none" width="184.32537841796875" height="61.18178367614746" transform="matrix(1,0,0,1,-92.2,-30.5)"></rect><text joint-selector="text" id="v-3248" font-size="24px" xml:space="preserve" y="0.8em" fill="#a9c7d1" text-anchor="middle" pointer-events="none" font-family="Open Sans, Tahoma, Arial" font-weight="normal" transform="matrix(1,0,0,1,0,-24.4)"><tspan dy="0" >Produces events</tspan><tspan dy="1.2em" x="0" >from syslog</tspan></text></g><g id="v-3246"  label-idx="1" cursor="move" transform="matrix(1,0,0,1,1357.9930419921875,2610.39990234375)" style="cursor: default; opacity: 1;"><rect joint-selector="rect" id="v-3251" fill="#111111" rx="3" ry="3"  pointer-events="none" width="54.42427062988281" height="22.526458740234375" transform="matrix(1,0,0,1,-27.2,-11.3)" style="display: block;"></rect><text joint-selector="text" id="v-3250" font-size="16.799999999999997px" xml:space="preserve" y="0.8em" fill="#a9c7d1" text-anchor="middle" pointer-events="none"  font-family="Open Sans, Tahoma, Arial" font-weight="normal" transform="matrix(1,0,0,1,0,-6.4)" style="display: block;"><tspan dy="0" >[Kafka]</tspan></text></g><g id="v-3247"  label-idx="2" cursor="move" transform="matrix(1,0,0,1,1347.9930419921875,2618.800048828125)" style="cursor: default; opacity: 1;"><rect joint-selector="rect" id="v-3253" fill="#ffffff" rx="3" ry="3"  width="0" height="0" transform="matrix(1,0,0,1,0,0)" display="none"></rect><text joint-selector="text" id="v-3252" fill="#000000" font-size="14" text-anchor="middle" pointer-events="none"></text></g></g><g  display="none" style="display: none;"><g  transform="translate(885, 2579)" id="v-3457"><circle  idx="0" r="10"></circle><path  idx="0" d="M16,5.333c-7.732,0-14,4.701-14,10.5c0,1.982,0.741,3.833,2.016,5.414L2,25.667l5.613-1.441c2.339,1.317,5.237,2.107,8.387,2.107c7.732,0,14-4.701,14-10.5C30,10.034,23.732,5.333,16,5.333z" transform="translate(5, -33)"></path><path  idx="0" transform="scale(.8) translate(9.5, -37)" d="M24.778,21.419 19.276,15.917 24.777,10.415 21.949,7.585 16.447,13.087 10.945,7.585 8.117,10.415 13.618,15.917 8.116,21.419 10.946,24.248 16.447,18.746 21.948,24.248z"><title>Remove vertex.</title></path></g><g  transform="translate(1543, 2579)" id="v-3458"><circle  idx="1" r="10"></circle><path  idx="1" d="M16,5.333c-7.732,0-14,4.701-14,10.5c0,1.982,0.741,3.833,2.016,5.414L2,25.667l5.613-1.441c2.339,1.317,5.237,2.107,8.387,2.107c7.732,0,14-4.701,14-10.5C30,10.034,23.732,5.333,16,5.333z" transform="translate(5, -33)"></path><path  idx="1" transform="scale(.8) translate(9.5, -37)" d="M24.778,21.419 19.276,15.917 24.777,10.415 21.949,7.585 16.447,13.087 10.945,7.585 8.117,10.415 13.618,15.917 8.116,21.419 10.946,24.248 16.447,18.746 21.948,24.248z"><title>Remove vertex.</title></path></g></g><g  id="v-3258" display="none"><g  id="v-3243"><path  end="source" d="M 26 0 L 0 13 L 26 26 z"></path></g><g  id="v-3244"><path  end="target" d="M 26 0 L 0 13 L 26 26 z"></path></g></g><g  id="v-3257" display="none"><g  id="v-3240" transform="translate(698.0910227782186, 2439.87815438948) "><g  event="remove"><circle r="11"></circle><path transform="scale(.8) translate(-16, -16)" d="M24.778,21.419 19.276,15.917 24.777,10.415 21.949,7.585 16.447,13.087 10.945,7.585 8.117,10.415 13.618,15.917 8.116,21.419 10.946,24.248 16.447,18.746 21.948,24.248z"></path><title>Remove link.</title></g><g  event="link:options"><circle r="11" transform="translate(25)"></circle><path fill="white" transform="scale(.55) translate(29, -16)" d="M31.229,17.736c0.064-0.571,0.104-1.148,0.104-1.736s-0.04-1.166-0.104-1.737l-4.377-1.557c-0.218-0.716-0.504-1.401-0.851-2.05l1.993-4.192c-0.725-0.91-1.549-1.734-2.458-2.459l-4.193,1.994c-0.647-0.347-1.334-0.632-2.049-0.849l-1.558-4.378C17.165,0.708,16.588,0.667,16,0.667s-1.166,0.041-1.737,0.105L12.707,5.15c-0.716,0.217-1.401,0.502-2.05,0.849L6.464,4.005C5.554,4.73,4.73,5.554,4.005,6.464l1.994,4.192c-0.347,0.648-0.632,1.334-0.849,2.05l-4.378,1.557C0.708,14.834,0.667,15.412,0.667,16s0.041,1.165,0.105,1.736l4.378,1.558c0.217,0.715,0.502,1.401,0.849,2.049l-1.994,4.193c0.725,0.909,1.549,1.733,2.459,2.458l4.192-1.993c0.648,0.347,1.334,0.633,2.05,0.851l1.557,4.377c0.571,0.064,1.148,0.104,1.737,0.104c0.588,0,1.165-0.04,1.736-0.104l1.558-4.377c0.715-0.218,1.399-0.504,2.049-0.851l4.193,1.993c0.909-0.725,1.733-1.549,2.458-2.458l-1.993-4.193c0.347-0.647,0.633-1.334,0.851-2.049L31.229,17.736zM16,20.871c-2.69,0-4.872-2.182-4.872-4.871c0-2.69,2.182-4.872,4.872-4.872c2.689,0,4.871,2.182,4.871,4.872C20.871,18.689,18.689,20.871,16,20.871z"></path><title>Link options.</title></g></g></g></g><!--z-index:116--><g   id="j_208" ><path  stroke="#a9c7d1" d="M 629 1816 L 786 1959 C 790.6666666666666 1963.6666666666665 794 1969.333333333333 796 1976 L 882 2260 C 884 2266.6666666666665 888.3333333333333 2270 895 2270 L 1533 2270 C 1539.6666666666665 2270 1545.6666666666665 2268 1551 2264 L 1756 2116" id="v-3277" stroke-width="2" stroke-dasharray="8 8" fill="none" style="opacity: 1;"></path><path  fill="black" stroke="black" d="M 0 0 0 0" transform="matrix(0.7389229445543876,0.6737899390841878,-0.6737899390841878,0.7389229445543876,628.5,1816)"></path><path  fill="#a9c7d1" stroke="#a9c7d1" d="M 20 0 L 0 10 L 20 20 z" id="v-3279" transform="matrix(-0.8107302790921801,0.5854198617770974,-0.5854198617770974,-0.8107302790921801,1762.1242211352553,2124.107352220026)" style="opacity: 1;"></path><path  d="M 629 1816 L 786 1959 C 790.6666666666666 1963.6666666666665 794 1969.333333333333 796 1976 L 882 2260 C 884 2266.6666666666665 888.3333333333333 2270 895 2270 L 1533 2270 C 1539.6666666666665 2270 1545.6666666666665 2268 1551 2264 L 1756 2116" id="v-3278" fill="none" style="cursor: auto; pointer-events: visiblepainted;"></path><g ><g id="v-3268"  label-idx="0" cursor="move" transform="matrix(1,0,0,1,1076.6641845703125,2256.60009765625)" style="cursor: default; opacity: 1;"><rect joint-selector="rect" id="v-3272" fill="#111111" rx="3" ry="3" pointer-events="none" width="195.21463012695312" height="32.38178253173828" transform="matrix(1,0,0,1,-97.6,-16.1)"></rect><text joint-selector="text" id="v-3271" font-size="24px" xml:space="preserve" y="0.8em" fill="#a9c7d1" text-anchor="middle" pointer-events="none" font-family="Open Sans, Tahoma, Arial" font-weight="normal" transform="matrix(1,0,0,1,0,-10)"><tspan dy="0" >Translates events</tspan></text></g><g id="v-3269"  label-idx="1" cursor="move" transform="matrix(1,0,0,1,1076.6641845703125,2287)" style="cursor: default; opacity: 1;"><rect joint-selector="rect" id="v-3274" fill="#111111" rx="3" ry="3"  pointer-events="none" width="54.42427062988281" height="22.526458740234375" transform="matrix(1,0,0,1,-27.2,-11.3)" style="display: block;"></rect><text joint-selector="text" id="v-3273" font-size="16.799999999999997px" xml:space="preserve" y="0.8em" fill="#a9c7d1" text-anchor="middle" pointer-events="none"  font-family="Open Sans, Tahoma, Arial" font-weight="normal" transform="matrix(1,0,0,1,0,-6.4)" style="display: block;"><tspan dy="0" >[Kafka]</tspan></text></g><g id="v-3270"  label-idx="2" cursor="move" transform="matrix(1,0,0,1,1066.6641845703125,2295.39990234375)" style="cursor: default; opacity: 1;"><rect joint-selector="rect" id="v-3276" fill="#ffffff" rx="3" ry="3"  width="0" height="0" transform="matrix(1,0,0,1,0,0)" display="none"></rect><text joint-selector="text" id="v-3275" fill="#000000" font-size="14" text-anchor="middle" pointer-events="none"></text></g></g><g  display="none" style="display: none;"><g  transform="translate(793, 1966)" id="v-3459"><circle  idx="0" r="10"></circle><path  idx="0" d="M16,5.333c-7.732,0-14,4.701-14,10.5c0,1.982,0.741,3.833,2.016,5.414L2,25.667l5.613-1.441c2.339,1.317,5.237,2.107,8.387,2.107c7.732,0,14-4.701,14-10.5C30,10.034,23.732,5.333,16,5.333z" transform="translate(5, -33)"></path><path  idx="0" transform="scale(.8) translate(9.5, -37)" d="M24.778,21.419 19.276,15.917 24.777,10.415 21.949,7.585 16.447,13.087 10.945,7.585 8.117,10.415 13.618,15.917 8.116,21.419 10.946,24.248 16.447,18.746 21.948,24.248z"><title>Remove vertex.</title></path></g><g  transform="translate(885, 2270)" id="v-3460"><circle  idx="1" r="10"></circle><path  idx="1" d="M16,5.333c-7.732,0-14,4.701-14,10.5c0,1.982,0.741,3.833,2.016,5.414L2,25.667l5.613-1.441c2.339,1.317,5.237,2.107,8.387,2.107c7.732,0,14-4.701,14-10.5C30,10.034,23.732,5.333,16,5.333z" transform="translate(5, -33)"></path><path  idx="1" transform="scale(.8) translate(9.5, -37)" d="M24.778,21.419 19.276,15.917 24.777,10.415 21.949,7.585 16.447,13.087 10.945,7.585 8.117,10.415 13.618,15.917 8.116,21.419 10.946,24.248 16.447,18.746 21.948,24.248z"><title>Remove vertex.</title></path></g><g  transform="translate(1543, 2270)" id="v-3461"><circle  idx="2" r="10"></circle><path  idx="2" d="M16,5.333c-7.732,0-14,4.701-14,10.5c0,1.982,0.741,3.833,2.016,5.414L2,25.667l5.613-1.441c2.339,1.317,5.237,2.107,8.387,2.107c7.732,0,14-4.701,14-10.5C30,10.034,23.732,5.333,16,5.333z" transform="translate(5, -33)"></path><path  idx="2" transform="scale(.8) translate(9.5, -37)" d="M24.778,21.419 19.276,15.917 24.777,10.415 21.949,7.585 16.447,13.087 10.945,7.585 8.117,10.415 13.618,15.917 8.116,21.419 10.946,24.248 16.447,18.746 21.948,24.248z"><title>Remove vertex.</title></path></g></g><g  id="v-3281" display="none"><g  id="v-3266"><path  end="source" d="M 26 0 L 0 13 L 26 26 z"></path></g><g  id="v-3267"><path  end="target" d="M 26 0 L 0 13 L 26 26 z"></path></g></g><g  id="v-3280" display="none"><g  id="v-3262" transform="translate(658.5720207732331, 1842.9350252902696) "><g  event="remove"><circle r="11"></circle><path transform="scale(.8) translate(-16, -16)" d="M24.778,21.419 19.276,15.917 24.777,10.415 21.949,7.585 16.447,13.087 10.945,7.585 8.117,10.415 13.618,15.917 8.116,21.419 10.946,24.248 16.447,18.746 21.948,24.248z"></path><title>Remove link.</title></g><g  event="link:options"><circle r="11" transform="translate(25)"></circle><path fill="white" transform="scale(.55) translate(29, -16)" d="M31.229,17.736c0.064-0.571,0.104-1.148,0.104-1.736s-0.04-1.166-0.104-1.737l-4.377-1.557c-0.218-0.716-0.504-1.401-0.851-2.05l1.993-4.192c-0.725-0.91-1.549-1.734-2.458-2.459l-4.193,1.994c-0.647-0.347-1.334-0.632-2.049-0.849l-1.558-4.378C17.165,0.708,16.588,0.667,16,0.667s-1.166,0.041-1.737,0.105L12.707,5.15c-0.716,0.217-1.401,0.502-2.05,0.849L6.464,4.005C5.554,4.73,4.73,5.554,4.005,6.464l1.994,4.192c-0.347,0.648-0.632,1.334-0.849,2.05l-4.378,1.557C0.708,14.834,0.667,15.412,0.667,16s0.041,1.165,0.105,1.736l4.378,1.558c0.217,0.715,0.502,1.401,0.849,2.049l-1.994,4.193c0.725,0.909,1.549,1.733,2.459,2.458l4.192-1.993c0.648,0.347,1.334,0.633,2.05,0.851l1.557,4.377c0.571,0.064,1.148,0.104,1.737,0.104c0.588,0,1.165-0.04,1.736-0.104l1.558-4.377c0.715-0.218,1.399-0.504,2.049-0.851l4.193,1.993c0.909-0.725,1.733-1.549,2.458-2.458l-1.993-4.193c0.347-0.647,0.633-1.334,0.851-2.049L31.229,17.736zM16,20.871c-2.69,0-4.872-2.182-4.872-4.871c0-2.69,2.182-4.872,4.872-4.872c2.689,0,4.871,2.182,4.871,4.872C20.871,18.689,18.689,20.871,16,20.871z"></path><title>Link options.</title></g></g></g></g><!--z-index:117--><g   id="j_209" ><path  stroke="#a9c7d1" d="M 629 1216 L 786 1359 C 790.6666666666666 1363.6666666666665 793.3333333333333 1369.3333333333333 794 1376 L 884 2056 C 884.6666666666666 2062.6666666666665 888.3333333333333 2066 895 2066 L 1533 2066 C 1539.6666666666665 2066 1546.333333333333 2065.333333333333 1553 2064 L 1739 2019" id="v-3300" stroke-width="2" stroke-dasharray="8 8" fill="none" style="opacity: 1;"></path><path  fill="black" stroke="black" d="M 0 0 0 0" transform="matrix(0.7389229445543876,0.6737899390841878,-0.6737899390841878,0.7389229445543876,628.5,1216)"></path><path  fill="#a9c7d1" stroke="#a9c7d1" d="M 20 0 L 0 10 L 20 20 z" id="v-3302" transform="matrix(-0.9729253665919618,0.23111951679141388,-0.23111951679141388,-0.9729253665919618,1741.3112007869588,2029.1692792011304)" style="opacity: 1;"></path><path  d="M 629 1216 L 786 1359 C 790.6666666666666 1363.6666666666665 793.3333333333333 1369.3333333333333 794 1376 L 884 2056 C 884.6666666666666 2062.6666666666665 888.3333333333333 2066 895 2066 L 1533 2066 C 1539.6666666666665 2066 1546.333333333333 2065.333333333333 1553 2064 L 1739 2019" id="v-3301" fill="none" style="cursor: auto; pointer-events: visiblepainted;"></path><g ><g id="v-3291"  label-idx="0" cursor="move" transform="matrix(1,0,0,1,880.6362915039062,2017.1851806640625)" style="cursor: default; opacity: 1;"><rect joint-selector="rect" id="v-3295" fill="#111111" rx="3" ry="3" pointer-events="none" width="190.77093505859375" height="89.98178482055664" transform="matrix(1,0,0,1,-95.4,-44.9)"></rect><text joint-selector="text" id="v-3294" font-size="24px" xml:space="preserve" y="0.8em" fill="#a9c7d1" text-anchor="middle" pointer-events="none" font-family="Open Sans, Tahoma, Arial" font-weight="normal" transform="matrix(1,0,0,1,0,-38.8)"><tspan dy="0" >Consumes</tspan><tspan dy="1.2em" x="0" >events, produces</tspan><tspan dy="1.2em" x="0" >alarm state</tspan></text></g><g id="v-3292"  label-idx="1" cursor="move" transform="matrix(1,0,0,1,880.6362915039062,2076.38525390625)" style="cursor: default; opacity: 1;"><rect joint-selector="rect" id="v-3297" fill="#111111" rx="3" ry="3"  pointer-events="none" width="54.42427062988281" height="22.526458740234375" transform="matrix(1,0,0,1,-27.2,-11.3)" style="display: block;"></rect><text joint-selector="text" id="v-3296" font-size="16.799999999999997px" xml:space="preserve" y="0.8em" fill="#a9c7d1" text-anchor="middle" pointer-events="none"  font-family="Open Sans, Tahoma, Arial" font-weight="normal" transform="matrix(1,0,0,1,0,-6.4)" style="display: block;"><tspan dy="0" >[Kafka]</tspan></text></g><g id="v-3293"  label-idx="2" cursor="move" transform="matrix(1,0,0,1,870.6362915039062,2084.78515625)" style="cursor: default; opacity: 1;"><rect joint-selector="rect" id="v-3299" fill="#ffffff" rx="3" ry="3"  width="0" height="0" transform="matrix(1,0,0,1,0,0)" display="none"></rect><text joint-selector="text" id="v-3298" fill="#000000" font-size="14" text-anchor="middle" pointer-events="none"></text></g></g><g  display="none" style="display: none;"><g  transform="translate(793, 1366)" id="v-3462"><circle  idx="0" r="10"></circle><path  idx="0" d="M16,5.333c-7.732,0-14,4.701-14,10.5c0,1.982,0.741,3.833,2.016,5.414L2,25.667l5.613-1.441c2.339,1.317,5.237,2.107,8.387,2.107c7.732,0,14-4.701,14-10.5C30,10.034,23.732,5.333,16,5.333z" transform="translate(5, -33)"></path><path  idx="0" transform="scale(.8) translate(9.5, -37)" d="M24.778,21.419 19.276,15.917 24.777,10.415 21.949,7.585 16.447,13.087 10.945,7.585 8.117,10.415 13.618,15.917 8.116,21.419 10.946,24.248 16.447,18.746 21.948,24.248z"><title>Remove vertex.</title></path></g><g  transform="translate(885, 2066)" id="v-3463"><circle  idx="1" r="10"></circle><path  idx="1" d="M16,5.333c-7.732,0-14,4.701-14,10.5c0,1.982,0.741,3.833,2.016,5.414L2,25.667l5.613-1.441c2.339,1.317,5.237,2.107,8.387,2.107c7.732,0,14-4.701,14-10.5C30,10.034,23.732,5.333,16,5.333z" transform="translate(5, -33)"></path><path  idx="1" transform="scale(.8) translate(9.5, -37)" d="M24.778,21.419 19.276,15.917 24.777,10.415 21.949,7.585 16.447,13.087 10.945,7.585 8.117,10.415 13.618,15.917 8.116,21.419 10.946,24.248 16.447,18.746 21.948,24.248z"><title>Remove vertex.</title></path></g><g  transform="translate(1543, 2066)" id="v-3464"><circle  idx="2" r="10"></circle><path  idx="2" d="M16,5.333c-7.732,0-14,4.701-14,10.5c0,1.982,0.741,3.833,2.016,5.414L2,25.667l5.613-1.441c2.339,1.317,5.237,2.107,8.387,2.107c7.732,0,14-4.701,14-10.5C30,10.034,23.732,5.333,16,5.333z" transform="translate(5, -33)"></path><path  idx="2" transform="scale(.8) translate(9.5, -37)" d="M24.778,21.419 19.276,15.917 24.777,10.415 21.949,7.585 16.447,13.087 10.945,7.585 8.117,10.415 13.618,15.917 8.116,21.419 10.946,24.248 16.447,18.746 21.948,24.248z"><title>Remove vertex.</title></path></g></g><g  id="v-3304" display="none"><g  id="v-3289"><path  end="source" d="M 26 0 L 0 13 L 26 26 z"></path></g><g  id="v-3290"><path  end="target" d="M 26 0 L 0 13 L 26 26 z"></path></g></g><g  id="v-3303" display="none"><g  id="v-3285" transform="translate(658.5720207732331, 1242.9350252902698) "><g  event="remove"><circle r="11"></circle><path transform="scale(.8) translate(-16, -16)" d="M24.778,21.419 19.276,15.917 24.777,10.415 21.949,7.585 16.447,13.087 10.945,7.585 8.117,10.415 13.618,15.917 8.116,21.419 10.946,24.248 16.447,18.746 21.948,24.248z"></path><title>Remove link.</title></g><g  event="link:options"><circle r="11" transform="translate(25)"></circle><path fill="white" transform="scale(.55) translate(29, -16)" d="M31.229,17.736c0.064-0.571,0.104-1.148,0.104-1.736s-0.04-1.166-0.104-1.737l-4.377-1.557c-0.218-0.716-0.504-1.401-0.851-2.05l1.993-4.192c-0.725-0.91-1.549-1.734-2.458-2.459l-4.193,1.994c-0.647-0.347-1.334-0.632-2.049-0.849l-1.558-4.378C17.165,0.708,16.588,0.667,16,0.667s-1.166,0.041-1.737,0.105L12.707,5.15c-0.716,0.217-1.401,0.502-2.05,0.849L6.464,4.005C5.554,4.73,4.73,5.554,4.005,6.464l1.994,4.192c-0.347,0.648-0.632,1.334-0.849,2.05l-4.378,1.557C0.708,14.834,0.667,15.412,0.667,16s0.041,1.165,0.105,1.736l4.378,1.558c0.217,0.715,0.502,1.401,0.849,2.049l-1.994,4.193c0.725,0.909,1.549,1.733,2.459,2.458l4.192-1.993c0.648,0.347,1.334,0.633,2.05,0.851l1.557,4.377c0.571,0.064,1.148,0.104,1.737,0.104c0.588,0,1.165-0.04,1.736-0.104l1.558-4.377c0.715-0.218,1.399-0.504,2.049-0.851l4.193,1.993c0.909-0.725,1.733-1.549,2.458-2.458l-1.993-4.193c0.347-0.647,0.633-1.334,0.851-2.049L31.229,17.736zM16,20.871c-2.69,0-4.872-2.182-4.872-4.871c0-2.69,2.182-4.872,4.872-4.872c2.689,0,4.871,2.182,4.871,4.872C20.871,18.689,18.689,20.871,16,20.871z"></path><title>Link options.</title></g></g></g></g><!--z-index:118--><g   id="j_210" ><path  stroke="#a9c7d1" d="M 538 916 L 881 217 C 883.6666666666666 211 888.3333333333333 208 895 208 L 1533 208 C 1539.6666666666665 208 1546.333333333333 209 1553 211 L 1739 266" id="v-3322" stroke-width="2" stroke-dasharray="8 8" fill="none" style="opacity: 1;"></path><path  fill="black" stroke="black" d="M 0 0 0 0" transform="matrix(0.440505985149214,-0.8977496739335082,0.8977496739335082,0.440505985149214,537.5999755859375,916)"></path><path  fill="#a9c7d1" stroke="#a9c7d1" d="M 20 0 L 0 10 L 20 20 z" id="v-3324" transform="matrix(-0.9586435414584494,-0.28460948757903726,0.28460948757903726,-0.9586435414584494,1736.153914757544,275.7764328782655)" style="opacity: 1;"></path><path  d="M 538 916 L 881 217 C 883.6666666666666 211 888.3333333333333 208 895 208 L 1533 208 C 1539.6666666666665 208 1546.333333333333 209 1553 211 L 1739 266" id="v-3323" fill="none" style="cursor: auto; pointer-events: visiblepainted;"></path><g ><g id="v-3313"  label-idx="0" cursor="move" transform="matrix(1,0,0,1,922.9431762695312,194.60000610351562)" style="cursor: default; opacity: 1;"><rect joint-selector="rect" id="v-3317" fill="#111111" rx="3" ry="3" pointer-events="none" width="144.44210815429688" height="32.38178253173828" transform="matrix(1,0,0,1,-72.2,-16.1)"></rect><text joint-selector="text" id="v-3316" font-size="24px" xml:space="preserve" y="0.8em" fill="#a9c7d1" text-anchor="middle" pointer-events="none" font-family="Open Sans, Tahoma, Arial" font-weight="normal" transform="matrix(1,0,0,1,0,-10)"><tspan dy="0" >Reads/writes</tspan></text></g><g id="v-3314"  label-idx="1" cursor="move" transform="matrix(1,0,0,1,922.9431762695312,225)" style="cursor: default; opacity: 1;"><rect joint-selector="rect" id="v-3319" fill="#111111" rx="3" ry="3"  pointer-events="none" width="49.12263488769531" height="22.526458740234375" transform="matrix(1,0,0,1,-24.6,-11.3)" style="display: block;"></rect><text joint-selector="text" id="v-3318" font-size="16.799999999999997px" xml:space="preserve" y="0.8em" fill="#a9c7d1" text-anchor="middle" pointer-events="none"  font-family="Open Sans, Tahoma, Arial" font-weight="normal" transform="matrix(1,0,0,1,0,-6.4)" style="display: block;"><tspan dy="0" >[JDBC]</tspan></text></g><g id="v-3315"  label-idx="2" cursor="move" transform="matrix(1,0,0,1,912.9431762695312,233.39999389648438)" style="cursor: default; opacity: 1;"><rect joint-selector="rect" id="v-3321" fill="#ffffff" rx="3" ry="3"  width="0" height="0" transform="matrix(1,0,0,1,0,0)" display="none"></rect><text joint-selector="text" id="v-3320" fill="#000000" font-size="14" text-anchor="middle" pointer-events="none"></text></g></g><g  display="none" style="display: none;"><g  transform="translate(885, 208)" id="v-3465"><circle  idx="0" r="10"></circle><path  idx="0" d="M16,5.333c-7.732,0-14,4.701-14,10.5c0,1.982,0.741,3.833,2.016,5.414L2,25.667l5.613-1.441c2.339,1.317,5.237,2.107,8.387,2.107c7.732,0,14-4.701,14-10.5C30,10.034,23.732,5.333,16,5.333z" transform="translate(5, -33)"></path><path  idx="0" transform="scale(.8) translate(9.5, -37)" d="M24.778,21.419 19.276,15.917 24.777,10.415 21.949,7.585 16.447,13.087 10.945,7.585 8.117,10.415 13.618,15.917 8.116,21.419 10.946,24.248 16.447,18.746 21.948,24.248z"><title>Remove vertex.</title></path></g><g  transform="translate(1543, 208)" id="v-3466"><circle  idx="1" r="10"></circle><path  idx="1" d="M16,5.333c-7.732,0-14,4.701-14,10.5c0,1.982,0.741,3.833,2.016,5.414L2,25.667l5.613-1.441c2.339,1.317,5.237,2.107,8.387,2.107c7.732,0,14-4.701,14-10.5C30,10.034,23.732,5.333,16,5.333z" transform="translate(5, -33)"></path><path  idx="1" transform="scale(.8) translate(9.5, -37)" d="M24.778,21.419 19.276,15.917 24.777,10.415 21.949,7.585 16.447,13.087 10.945,7.585 8.117,10.415 13.618,15.917 8.116,21.419 10.946,24.248 16.447,18.746 21.948,24.248z"><title>Remove vertex.</title></path></g></g><g  id="v-3326" display="none"><g  id="v-3311"><path  end="source" d="M 26 0 L 0 13 L 26 26 z"></path></g><g  id="v-3312"><path  end="target" d="M 26 0 L 0 13 L 26 26 z"></path></g></g><g  id="v-3325" display="none"><g  id="v-3308" transform="translate(555.6209060464241, 880.0903401561211) "><g  event="remove"><circle r="11"></circle><path transform="scale(.8) translate(-16, -16)" d="M24.778,21.419 19.276,15.917 24.777,10.415 21.949,7.585 16.447,13.087 10.945,7.585 8.117,10.415 13.618,15.917 8.116,21.419 10.946,24.248 16.447,18.746 21.948,24.248z"></path><title>Remove link.</title></g><g  event="link:options"><circle r="11" transform="translate(25)"></circle><path fill="white" transform="scale(.55) translate(29, -16)" d="M31.229,17.736c0.064-0.571,0.104-1.148,0.104-1.736s-0.04-1.166-0.104-1.737l-4.377-1.557c-0.218-0.716-0.504-1.401-0.851-2.05l1.993-4.192c-0.725-0.91-1.549-1.734-2.458-2.459l-4.193,1.994c-0.647-0.347-1.334-0.632-2.049-0.849l-1.558-4.378C17.165,0.708,16.588,0.667,16,0.667s-1.166,0.041-1.737,0.105L12.707,5.15c-0.716,0.217-1.401,0.502-2.05,0.849L6.464,4.005C5.554,4.73,4.73,5.554,4.005,6.464l1.994,4.192c-0.347,0.648-0.632,1.334-0.849,2.05l-4.378,1.557C0.708,14.834,0.667,15.412,0.667,16s0.041,1.165,0.105,1.736l4.378,1.558c0.217,0.715,0.502,1.401,0.849,2.049l-1.994,4.193c0.725,0.909,1.549,1.733,2.459,2.458l4.192-1.993c0.648,0.347,1.334,0.633,2.05,0.851l1.557,4.377c0.571,0.064,1.148,0.104,1.737,0.104c0.588,0,1.165-0.04,1.736-0.104l1.558-4.377c0.715-0.218,1.399-0.504,2.049-0.851l4.193,1.993c0.909-0.725,1.733-1.549,2.458-2.458l-1.993-4.193c0.347-0.647,0.633-1.334,0.851-2.049L31.229,17.736zM16,20.871c-2.69,0-4.872-2.182-4.872-4.871c0-2.69,2.182-4.872,4.872-4.872c2.689,0,4.871,2.182,4.871,4.872C20.871,18.689,18.689,20.871,16,20.871z"></path><title>Link options.</title></g></g></g></g><!--z-index:119--><g   id="j_211" ><path  stroke="#a9c7d1" d="M 1439 1806 L 1739 1897" id="v-3342" stroke-width="2" stroke-dasharray="8 8" fill="none" style="opacity: 1;"></path><path  fill="black" stroke="black" d="M 0 0 0 0" transform="matrix(0.9564109470072379,0.2920241435989811,-0.2920241435989811,0.9564109470072379,1439,1805.699951171875)"></path><path  fill="#a9c7d1" stroke="#a9c7d1" d="M 20 0 L 0 10 L 20 20 z" id="v-3344" transform="matrix(-0.9564109761712583,-0.292024048083614,0.292024048083614,-0.9564109761712583,1736.079782366814,1906.8641109847363)" style="opacity: 1;"></path><path  d="M 1439 1806 L 1739 1897" id="v-3343" fill="none" style="cursor: auto; pointer-events: visiblepainted;"></path><g ><g id="v-3333"  label-idx="0" cursor="move" transform="matrix(1,0,0,1,1589,1838.0999755859375)" style="cursor: default; opacity: 1;"><rect joint-selector="rect" id="v-3337" fill="#111111" rx="3" ry="3" pointer-events="none" width="177.96780395507812" height="61.18178367614746" transform="matrix(1,0,0,1,-89,-30.5)"></rect><text joint-selector="text" id="v-3336" font-size="24px" xml:space="preserve" y="0.8em" fill="#a9c7d1" text-anchor="middle" pointer-events="none" font-family="Open Sans, Tahoma, Arial" font-weight="normal" transform="matrix(1,0,0,1,0,-24.4)"><tspan dy="0" >Publishes alarm</tspan><tspan dy="1.2em" x="0" >state</tspan></text></g><g id="v-3334"  label-idx="1" cursor="move" transform="matrix(1,0,0,1,1589,1882.9000244140625)" style="cursor: default; opacity: 1;"><rect joint-selector="rect" id="v-3339" fill="#111111" rx="3" ry="3"  pointer-events="none" width="54.42427062988281" height="22.526458740234375" transform="matrix(1,0,0,1,-27.2,-11.3)" style="display: block;"></rect><text joint-selector="text" id="v-3338" font-size="16.799999999999997px" xml:space="preserve" y="0.8em" fill="#a9c7d1" text-anchor="middle" pointer-events="none"  font-family="Open Sans, Tahoma, Arial" font-weight="normal" transform="matrix(1,0,0,1,0,-6.4)" style="display: block;"><tspan dy="0" >[Kafka]</tspan></text></g><g id="v-3335"  label-idx="2" cursor="move" transform="matrix(1,0,0,1,1579,1891.300048828125)" style="cursor: default; opacity: 1;"><rect joint-selector="rect" id="v-3341" fill="#ffffff" rx="3" ry="3"  width="0" height="0" transform="matrix(1,0,0,1,0,0)" display="none"></rect><text joint-selector="text" id="v-3340" fill="#000000" font-size="14" text-anchor="middle" pointer-events="none"></text></g></g><g  display="none" style="display: none;"></g><g  id="v-3346" display="none"><g  id="v-3331"><path  end="source" d="M 26 0 L 0 13 L 26 26 z"></path></g><g  id="v-3332"><path  end="target" d="M 26 0 L 0 13 L 26 26 z"></path></g></g><g  id="v-3345" display="none"><g  id="v-3330" transform="translate(1477.2777553797678, 1817.610919131863) "><g  event="remove"><circle r="11"></circle><path transform="scale(.8) translate(-16, -16)" d="M24.778,21.419 19.276,15.917 24.777,10.415 21.949,7.585 16.447,13.087 10.945,7.585 8.117,10.415 13.618,15.917 8.116,21.419 10.946,24.248 16.447,18.746 21.948,24.248z"></path><title>Remove link.</title></g><g  event="link:options"><circle r="11" transform="translate(25)"></circle><path fill="white" transform="scale(.55) translate(29, -16)" d="M31.229,17.736c0.064-0.571,0.104-1.148,0.104-1.736s-0.04-1.166-0.104-1.737l-4.377-1.557c-0.218-0.716-0.504-1.401-0.851-2.05l1.993-4.192c-0.725-0.91-1.549-1.734-2.458-2.459l-4.193,1.994c-0.647-0.347-1.334-0.632-2.049-0.849l-1.558-4.378C17.165,0.708,16.588,0.667,16,0.667s-1.166,0.041-1.737,0.105L12.707,5.15c-0.716,0.217-1.401,0.502-2.05,0.849L6.464,4.005C5.554,4.73,4.73,5.554,4.005,6.464l1.994,4.192c-0.347,0.648-0.632,1.334-0.849,2.05l-4.378,1.557C0.708,14.834,0.667,15.412,0.667,16s0.041,1.165,0.105,1.736l4.378,1.558c0.217,0.715,0.502,1.401,0.849,2.049l-1.994,4.193c0.725,0.909,1.549,1.733,2.459,2.458l4.192-1.993c0.648,0.347,1.334,0.633,2.05,0.851l1.557,4.377c0.571,0.064,1.148,0.104,1.737,0.104c0.588,0,1.165-0.04,1.736-0.104l1.558-4.377c0.715-0.218,1.399-0.504,2.049-0.851l4.193,1.993c0.909-0.725,1.733-1.549,2.458-2.458l-1.993-4.193c0.347-0.647,0.633-1.334,0.851-2.049L31.229,17.736zM16,20.871c-2.69,0-4.872-2.182-4.872-4.871c0-2.69,2.182-4.872,4.872-4.872c2.689,0,4.871,2.182,4.871,4.872C20.871,18.689,18.689,20.871,16,20.871z"></path><title>Link options.</title></g></g></g></g><!--z-index:120--><g   id="j_212" ><path  stroke="#a9c7d1" d="M 1324 1287 L 1537 1579 C 1540.9999999999998 1584.3333333333333 1545.333333333333 1589.3333333333333 1550 1594 L 1797 1816" id="v-3363" stroke-width="2" stroke-dasharray="8 8" fill="none" style="opacity: 1;"></path><path  fill="black" stroke="black" d="M 0 0 0 0" transform="matrix(0.5901906157815964,0.8072639203156178,-0.8072639203156178,0.5901906157815964,1323.6700439453125,1287)"></path><path  fill="#a9c7d1" stroke="#a9c7d1" d="M 20 0 L 0 10 L 20 20 z" id="v-3365" transform="matrix(-0.7432098650610655,-0.6690583655227045,0.6690583655227045,-0.7432098650610655,1790.689390971946,1823.4321305480253)" style="opacity: 1;"></path><path  d="M 1324 1287 L 1537 1579 C 1540.9999999999998 1584.3333333333333 1545.333333333333 1589.3333333333333 1550 1594 L 1797 1816" id="v-3364" fill="none" style="cursor: auto; pointer-events: visiblepainted;"></path><g ><g id="v-3354"  label-idx="0" cursor="move" transform="matrix(1,0,0,1,1534.211669921875,1561.7774658203125)" style="cursor: default; opacity: 1;"><rect joint-selector="rect" id="v-3358" fill="#111111" rx="3" ry="3" pointer-events="none" width="188.48309326171875" height="61.18178367614746" transform="matrix(1,0,0,1,-94.2,-30.5)"></rect><text joint-selector="text" id="v-3357" font-size="24px" xml:space="preserve" y="0.8em" fill="#a9c7d1" text-anchor="middle" pointer-events="none" font-family="Open Sans, Tahoma, Arial" font-weight="normal" transform="matrix(1,0,0,1,0,-24.4)"><tspan dy="0" >Consumes alarm</tspan><tspan dy="1.2em" x="0" >state</tspan></text></g><g id="v-3355"  label-idx="1" cursor="move" transform="matrix(1,0,0,1,1534.211669921875,1606.5775146484375)" style="cursor: default; opacity: 1;"><rect joint-selector="rect" id="v-3360" fill="#111111" rx="3" ry="3"  pointer-events="none" width="54.42427062988281" height="22.526458740234375" transform="matrix(1,0,0,1,-27.2,-11.3)" style="display: block;"></rect><text joint-selector="text" id="v-3359" font-size="16.799999999999997px" xml:space="preserve" y="0.8em" fill="#a9c7d1" text-anchor="middle" pointer-events="none"  font-family="Open Sans, Tahoma, Arial" font-weight="normal" transform="matrix(1,0,0,1,0,-6.4)" style="display: block;"><tspan dy="0" >[Kafka]</tspan></text></g><g id="v-3356"  label-idx="2" cursor="move" transform="matrix(1,0,0,1,1524.211669921875,1614.9774169921875)" style="cursor: default; opacity: 1;"><rect joint-selector="rect" id="v-3362" fill="#ffffff" rx="3" ry="3"  width="0" height="0" transform="matrix(1,0,0,1,0,0)" display="none"></rect><text joint-selector="text" id="v-3361" fill="#000000" font-size="14" text-anchor="middle" pointer-events="none"></text></g></g><g  display="none" style="display: none;"><g  transform="translate(1543, 1587)" id="v-3467"><circle  idx="0" r="10"></circle><path  idx="0" d="M16,5.333c-7.732,0-14,4.701-14,10.5c0,1.982,0.741,3.833,2.016,5.414L2,25.667l5.613-1.441c2.339,1.317,5.237,2.107,8.387,2.107c7.732,0,14-4.701,14-10.5C30,10.034,23.732,5.333,16,5.333z" transform="translate(5, -33)"></path><path  idx="0" transform="scale(.8) translate(9.5, -37)" d="M24.778,21.419 19.276,15.917 24.777,10.415 21.949,7.585 16.447,13.087 10.945,7.585 8.117,10.415 13.618,15.917 8.116,21.419 10.946,24.248 16.447,18.746 21.948,24.248z"><title>Remove vertex.</title></path></g></g><g  id="v-3367" display="none"><g  id="v-3352"><path  end="source" d="M 26 0 L 0 13 L 26 26 z"></path></g><g  id="v-3353"><path  end="target" d="M 26 0 L 0 13 L 26 26 z"></path></g></g><g  id="v-3366" display="none"><g  id="v-3350" transform="translate(1347.5729070898212, 1319.315910188863) "><g  event="remove"><circle r="11"></circle><path transform="scale(.8) translate(-16, -16)" d="M24.778,21.419 19.276,15.917 24.777,10.415 21.949,7.585 16.447,13.087 10.945,7.585 8.117,10.415 13.618,15.917 8.116,21.419 10.946,24.248 16.447,18.746 21.948,24.248z"></path><title>Remove link.</title></g><g  event="link:options"><circle r="11" transform="translate(25)"></circle><path fill="white" transform="scale(.55) translate(29, -16)" d="M31.229,17.736c0.064-0.571,0.104-1.148,0.104-1.736s-0.04-1.166-0.104-1.737l-4.377-1.557c-0.218-0.716-0.504-1.401-0.851-2.05l1.993-4.192c-0.725-0.91-1.549-1.734-2.458-2.459l-4.193,1.994c-0.647-0.347-1.334-0.632-2.049-0.849l-1.558-4.378C17.165,0.708,16.588,0.667,16,0.667s-1.166,0.041-1.737,0.105L12.707,5.15c-0.716,0.217-1.401,0.502-2.05,0.849L6.464,4.005C5.554,4.73,4.73,5.554,4.005,6.464l1.994,4.192c-0.347,0.648-0.632,1.334-0.849,2.05l-4.378,1.557C0.708,14.834,0.667,15.412,0.667,16s0.041,1.165,0.105,1.736l4.378,1.558c0.217,0.715,0.502,1.401,0.849,2.049l-1.994,4.193c0.725,0.909,1.549,1.733,2.459,2.458l4.192-1.993c0.648,0.347,1.334,0.633,2.05,0.851l1.557,4.377c0.571,0.064,1.148,0.104,1.737,0.104c0.588,0,1.165-0.04,1.736-0.104l1.558-4.377c0.715-0.218,1.399-0.504,2.049-0.851l4.193,1.993c0.909-0.725,1.733-1.549,2.458-2.458l-1.993-4.193c0.347-0.647,0.633-1.334,0.851-2.049L31.229,17.736zM16,20.871c-2.69,0-4.872-2.182-4.872-4.871c0-2.69,2.182-4.872,4.872-4.872c2.689,0,4.871,2.182,4.871,4.872C20.871,18.689,18.689,20.871,16,20.871z"></path><title>Link options.</title></g></g></g></g><!--z-index:121--><g   id="j_213" ><path  stroke="#a9c7d1" d="M 1379 987 L 1536 844 C 1540.6666666666665 839.3333333333333 1544.333333333333 834 1547 828 L 1631 625 C 1633.6666666666665 619 1637.6666666666665 613.6666666666666 1643 609 L 1790 483" id="v-3385" stroke-width="2" stroke-dasharray="8 8" fill="none" style="opacity: 1;"></path><path  fill="black" stroke="black" d="M 0 0 0 0" transform="matrix(0.7389228548338237,-0.6737900374777235,0.6737900374777235,0.7389228548338237,1378.5,987)"></path><path  fill="#a9c7d1" stroke="#a9c7d1" d="M 20 0 L 0 10 L 20 20 z" id="v-3387" transform="matrix(-0.7581203039459148,0.6521147174730485,-0.6521147174730485,-0.7581203039459148,1796.1411685735645,490.5812045463693)" style="opacity: 1;"></path><path  d="M 1379 987 L 1536 844 C 1540.6666666666665 839.3333333333333 1544.333333333333 834 1547 828 L 1631 625 C 1633.6666666666665 619 1637.6666666666665 613.6666666666666 1643 609 L 1790 483" id="v-3386" fill="none" style="cursor: auto; pointer-events: visiblepainted;"></path><g ><g id="v-3376"  label-idx="0" cursor="move" transform="matrix(1,0,0,1,1585.5357666015625,721.4717407226562)" style="cursor: default; opacity: 1;"><rect joint-selector="rect" id="v-3380" fill="#111111" rx="3" ry="3" pointer-events="none" width="169.2783966064453" height="32.38178253173828" transform="matrix(1,0,0,1,-84.6,-16.1)"></rect><text joint-selector="text" id="v-3379" font-size="24px" xml:space="preserve" y="0.8em" fill="#a9c7d1" text-anchor="middle" pointer-events="none" font-family="Open Sans, Tahoma, Arial" font-weight="normal" transform="matrix(1,0,0,1,0,-10)"><tspan dy="0" >Upserts alarms</tspan></text></g><g id="v-3377"  label-idx="1" cursor="move" transform="matrix(1,0,0,1,1585.5357666015625,751.8717651367188)" style="cursor: default; opacity: 1;"><rect joint-selector="rect" id="v-3382" fill="#111111" rx="3" ry="3"  pointer-events="none" width="49.12263488769531" height="22.526458740234375" transform="matrix(1,0,0,1,-24.6,-11.3)" style="display: block;"></rect><text joint-selector="text" id="v-3381" font-size="16.799999999999997px" xml:space="preserve" y="0.8em" fill="#a9c7d1" text-anchor="middle" pointer-events="none"  font-family="Open Sans, Tahoma, Arial" font-weight="normal" transform="matrix(1,0,0,1,0,-6.4)" style="display: block;"><tspan dy="0" >[JDBC]</tspan></text></g><g id="v-3378"  label-idx="2" cursor="move" transform="matrix(1,0,0,1,1575.5357666015625,760.2717895507812)" style="cursor: default; opacity: 1;"><rect joint-selector="rect" id="v-3384" fill="#ffffff" rx="3" ry="3"  width="0" height="0" transform="matrix(1,0,0,1,0,0)" display="none"></rect><text joint-selector="text" id="v-3383" fill="#000000" font-size="14" text-anchor="middle" pointer-events="none"></text></g></g><g  display="none" style="display: none;"><g  transform="translate(1543, 837)" id="v-3468"><circle  idx="0" r="10"></circle><path  idx="0" d="M16,5.333c-7.732,0-14,4.701-14,10.5c0,1.982,0.741,3.833,2.016,5.414L2,25.667l5.613-1.441c2.339,1.317,5.237,2.107,8.387,2.107c7.732,0,14-4.701,14-10.5C30,10.034,23.732,5.333,16,5.333z" transform="translate(5, -33)"></path><path  idx="0" transform="scale(.8) translate(9.5, -37)" d="M24.778,21.419 19.276,15.917 24.777,10.415 21.949,7.585 16.447,13.087 10.945,7.585 8.117,10.415 13.618,15.917 8.116,21.419 10.946,24.248 16.447,18.746 21.948,24.248z"><title>Remove vertex.</title></path></g><g  transform="translate(1635, 616)" id="v-3469"><circle  idx="1" r="10"></circle><path  idx="1" d="M16,5.333c-7.732,0-14,4.701-14,10.5c0,1.982,0.741,3.833,2.016,5.414L2,25.667l5.613-1.441c2.339,1.317,5.237,2.107,8.387,2.107c7.732,0,14-4.701,14-10.5C30,10.034,23.732,5.333,16,5.333z" transform="translate(5, -33)"></path><path  idx="1" transform="scale(.8) translate(9.5, -37)" d="M24.778,21.419 19.276,15.917 24.777,10.415 21.949,7.585 16.447,13.087 10.945,7.585 8.117,10.415 13.618,15.917 8.116,21.419 10.946,24.248 16.447,18.746 21.948,24.248z"><title>Remove vertex.</title></path></g></g><g  id="v-3389" display="none"><g  id="v-3374"><path  end="source" d="M 26 0 L 0 13 L 26 26 z"></path></g><g  id="v-3375"><path  end="target" d="M 26 0 L 0 13 L 26 26 z"></path></g></g><g  id="v-3388" display="none"><g  id="v-3371" transform="translate(1408.5720207732331, 960.0649747097303) "><g  event="remove"><circle r="11"></circle><path transform="scale(.8) translate(-16, -16)" d="M24.778,21.419 19.276,15.917 24.777,10.415 21.949,7.585 16.447,13.087 10.945,7.585 8.117,10.415 13.618,15.917 8.116,21.419 10.946,24.248 16.447,18.746 21.948,24.248z"></path><title>Remove link.</title></g><g  event="link:options"><circle r="11" transform="translate(25)"></circle><path fill="white" transform="scale(.55) translate(29, -16)" d="M31.229,17.736c0.064-0.571,0.104-1.148,0.104-1.736s-0.04-1.166-0.104-1.737l-4.377-1.557c-0.218-0.716-0.504-1.401-0.851-2.05l1.993-4.192c-0.725-0.91-1.549-1.734-2.458-2.459l-4.193,1.994c-0.647-0.347-1.334-0.632-2.049-0.849l-1.558-4.378C17.165,0.708,16.588,0.667,16,0.667s-1.166,0.041-1.737,0.105L12.707,5.15c-0.716,0.217-1.401,0.502-2.05,0.849L6.464,4.005C5.554,4.73,4.73,5.554,4.005,6.464l1.994,4.192c-0.347,0.648-0.632,1.334-0.849,2.05l-4.378,1.557C0.708,14.834,0.667,15.412,0.667,16s0.041,1.165,0.105,1.736l4.378,1.558c0.217,0.715,0.502,1.401,0.849,2.049l-1.994,4.193c0.725,0.909,1.549,1.733,2.459,2.458l4.192-1.993c0.648,0.347,1.334,0.633,2.05,0.851l1.557,4.377c0.571,0.064,1.148,0.104,1.737,0.104c0.588,0,1.165-0.04,1.736-0.104l1.558-4.377c0.715-0.218,1.399-0.504,2.049-0.851l4.193,1.993c0.909-0.725,1.733-1.549,2.458-2.458l-1.993-4.193c0.347-0.647,0.633-1.334,0.851-2.049L31.229,17.736zM16,20.871c-2.69,0-4.872-2.182-4.872-4.871c0-2.69,2.182-4.872,4.872-4.872c2.689,0,4.871,2.182,4.871,4.872C20.871,18.689,18.689,20.871,16,20.871z"></path><title>Link options.</title></g></g></g></g><!--z-index:122--><g   id="j_214" ><path  stroke="#a9c7d1" d="M 1379 687 L 1536 830 C 1540.6666666666665 834.6666666666666 1543.6666666666665 840.3333333333333 1545 847 L 1633 1265 C 1634.3333333333333 1271.6666666666665 1636.3333333333333 1278 1639 1284 L 1893 1816" id="v-3407" stroke-width="2" stroke-dasharray="8 8" fill="none" style="opacity: 1;"></path><path  fill="black" stroke="black" d="M 0 0 0 0" transform="matrix(0.7389229445543876,0.6737899390841878,-0.6737899390841878,0.7389229445543876,1378.5,687)"></path><path  fill="#a9c7d1" stroke="#a9c7d1" d="M 20 0 L 0 10 L 20 20 z" id="v-3409" transform="matrix(-0.4298804934401707,-0.9028857964103961,0.9028857964103961,-0.4298804934401707,1883.5511969702977,1820.2988543047557)" style="opacity: 1;"></path><path  d="M 1379 687 L 1536 830 C 1540.6666666666665 834.6666666666666 1543.6666666666665 840.3333333333333 1545 847 L 1633 1265 C 1634.3333333333333 1271.6666666666665 1636.3333333333333 1278 1639 1284 L 1893 1816" id="v-3408" fill="none" style="cursor: auto; pointer-events: visiblepainted;"></path><g ><g id="v-3398"  label-idx="0" cursor="move" transform="matrix(1,0,0,1,1627.895263671875,1227.3524169921875)" style="cursor: default; opacity: 1;"><rect joint-selector="rect" id="v-3402" fill="#111111" rx="3" ry="3" pointer-events="none" width="186.32723999023438" height="61.18178367614746" transform="matrix(1,0,0,1,-93.2,-30.5)"></rect><text joint-selector="text" id="v-3401" font-size="24px" xml:space="preserve" y="0.8em" fill="#a9c7d1" text-anchor="middle" pointer-events="none" font-family="Open Sans, Tahoma, Arial" font-weight="normal" transform="matrix(1,0,0,1,0,-24.4)"><tspan dy="0" >Consumes</tspan><tspan dy="1.2em" x="0" >alarm/alert state</tspan></text></g><g id="v-3399"  label-idx="1" cursor="move" transform="matrix(1,0,0,1,1627.895263671875,1272.1524658203125)" style="cursor: default; opacity: 1;"><rect joint-selector="rect" id="v-3404" fill="#111111" rx="3" ry="3"  pointer-events="none" width="54.42427062988281" height="22.526458740234375" transform="matrix(1,0,0,1,-27.2,-11.3)" style="display: block;"></rect><text joint-selector="text" id="v-3403" font-size="16.799999999999997px" xml:space="preserve" y="0.8em" fill="#a9c7d1" text-anchor="middle" pointer-events="none"  font-family="Open Sans, Tahoma, Arial" font-weight="normal" transform="matrix(1,0,0,1,0,-6.4)" style="display: block;"><tspan dy="0" >[Kafka]</tspan></text></g><g id="v-3400"  label-idx="2" cursor="move" transform="matrix(1,0,0,1,1617.895263671875,1280.5523681640625)" style="cursor: default; opacity: 1;"><rect joint-selector="rect" id="v-3406" fill="#ffffff" rx="3" ry="3"  width="0" height="0" transform="matrix(1,0,0,1,0,0)" display="none"></rect><text joint-selector="text" id="v-3405" fill="#000000" font-size="14" text-anchor="middle" pointer-events="none"></text></g></g><g  display="none" style="display: none;"><g  transform="translate(1543, 837)" id="v-3470"><circle  idx="0" r="10"></circle><path  idx="0" d="M16,5.333c-7.732,0-14,4.701-14,10.5c0,1.982,0.741,3.833,2.016,5.414L2,25.667l5.613-1.441c2.339,1.317,5.237,2.107,8.387,2.107c7.732,0,14-4.701,14-10.5C30,10.034,23.732,5.333,16,5.333z" transform="translate(5, -33)"></path><path  idx="0" transform="scale(.8) translate(9.5, -37)" d="M24.778,21.419 19.276,15.917 24.777,10.415 21.949,7.585 16.447,13.087 10.945,7.585 8.117,10.415 13.618,15.917 8.116,21.419 10.946,24.248 16.447,18.746 21.948,24.248z"><title>Remove vertex.</title></path></g><g  transform="translate(1635, 1275)" id="v-3471"><circle  idx="1" r="10"></circle><path  idx="1" d="M16,5.333c-7.732,0-14,4.701-14,10.5c0,1.982,0.741,3.833,2.016,5.414L2,25.667l5.613-1.441c2.339,1.317,5.237,2.107,8.387,2.107c7.732,0,14-4.701,14-10.5C30,10.034,23.732,5.333,16,5.333z" transform="translate(5, -33)"></path><path  idx="1" transform="scale(.8) translate(9.5, -37)" d="M24.778,21.419 19.276,15.917 24.777,10.415 21.949,7.585 16.447,13.087 10.945,7.585 8.117,10.415 13.618,15.917 8.116,21.419 10.946,24.248 16.447,18.746 21.948,24.248z"><title>Remove vertex.</title></path></g></g><g  id="v-3411" display="none"><g  id="v-3396"><path  end="source" d="M 26 0 L 0 13 L 26 26 z"></path></g><g  id="v-3397"><path  end="target" d="M 26 0 L 0 13 L 26 26 z"></path></g></g><g  id="v-3410" display="none"><g  id="v-3393" transform="translate(1408.5720207732331, 713.9350252902697) "><g  event="remove"><circle r="11"></circle><path transform="scale(.8) translate(-16, -16)" d="M24.778,21.419 19.276,15.917 24.777,10.415 21.949,7.585 16.447,13.087 10.945,7.585 8.117,10.415 13.618,15.917 8.116,21.419 10.946,24.248 16.447,18.746 21.948,24.248z"></path><title>Remove link.</title></g><g  event="link:options"><circle r="11" transform="translate(25)"></circle><path fill="white" transform="scale(.55) translate(29, -16)" d="M31.229,17.736c0.064-0.571,0.104-1.148,0.104-1.736s-0.04-1.166-0.104-1.737l-4.377-1.557c-0.218-0.716-0.504-1.401-0.851-2.05l1.993-4.192c-0.725-0.91-1.549-1.734-2.458-2.459l-4.193,1.994c-0.647-0.347-1.334-0.632-2.049-0.849l-1.558-4.378C17.165,0.708,16.588,0.667,16,0.667s-1.166,0.041-1.737,0.105L12.707,5.15c-0.716,0.217-1.401,0.502-2.05,0.849L6.464,4.005C5.554,4.73,4.73,5.554,4.005,6.464l1.994,4.192c-0.347,0.648-0.632,1.334-0.849,2.05l-4.378,1.557C0.708,14.834,0.667,15.412,0.667,16s0.041,1.165,0.105,1.736l4.378,1.558c0.217,0.715,0.502,1.401,0.849,2.049l-1.994,4.193c0.725,0.909,1.549,1.733,2.459,2.458l4.192-1.993c0.648,0.347,1.334,0.633,2.05,0.851l1.557,4.377c0.571,0.064,1.148,0.104,1.737,0.104c0.588,0,1.165-0.04,1.736-0.104l1.558-4.377c0.715-0.218,1.399-0.504,2.049-0.851l4.193,1.993c0.909-0.725,1.733-1.549,2.458-2.458l-1.993-4.193c0.347-0.647,0.633-1.334,0.851-2.049L31.229,17.736zM16,20.871c-2.69,0-4.872-2.182-4.872-4.871c0-2.69,2.182-4.872,4.872-4.872c2.689,0,4.871,2.182,4.871,4.872C20.871,18.689,18.689,20.871,16,20.871z"></path><title>Link options.</title></g></g></g></g><!--z-index:123--><g   id="j_215" ><path  stroke="#a9c7d1" d="M 1439 659 L 1739 823" id="v-3427" stroke-width="2" stroke-dasharray="8 8" fill="none" style="opacity: 1;"></path><path  fill="black" stroke="black" d="M 0 0 0 0" transform="matrix(0.8784321550217224,0.47786708300937897,-0.47786708300937897,0.8784321550217224,1439,659.4000244140625)"></path><path  fill="#a9c7d1" stroke="#a9c7d1" d="M 20 0 L 0 10 L 20 20 z" id="v-3429" transform="matrix(-0.8784321709296846,-0.4778670537667996,0.4778670537667996,-0.8784321709296846,1734.2213494138164,831.3843423446211)" style="opacity: 1;"></path><path  d="M 1439 659 L 1739 823" id="v-3428" fill="none" style="cursor: auto; pointer-events: visiblepainted;"></path><g ><g id="v-3418"  label-idx="0" cursor="move" transform="matrix(1,0,0,1,1589,727.5999755859375)" style="cursor: default; opacity: 1;"><rect joint-selector="rect" id="v-3422" fill="#111111" rx="3" ry="3" pointer-events="none" width="148.81980895996094" height="61.18178367614746" transform="matrix(1,0,0,1,-74.4,-30.5)"></rect><text joint-selector="text" id="v-3421" font-size="24px" xml:space="preserve" y="0.8em" fill="#a9c7d1" text-anchor="middle" pointer-events="none" font-family="Open Sans, Tahoma, Arial" font-weight="normal" transform="matrix(1,0,0,1,0,-24.4)"><tspan dy="0" >POST</tspan><tspan dy="1.2em" x="0" >/api/v2/alerts</tspan></text></g><g id="v-3419"  label-idx="1" cursor="move" transform="matrix(1,0,0,1,1589,772.4000244140625)" style="cursor: default; opacity: 1;"><rect joint-selector="rect" id="v-3424" fill="#111111" rx="3" ry="3"  pointer-events="none" width="51.98243713378906" height="22.526458740234375" transform="matrix(1,0,0,1,-26,-11.3)" style="display: block;"></rect><text joint-selector="text" id="v-3423" font-size="16.799999999999997px" xml:space="preserve" y="0.8em" fill="#a9c7d1" text-anchor="middle" pointer-events="none"  font-family="Open Sans, Tahoma, Arial" font-weight="normal" transform="matrix(1,0,0,1,0,-6.4)" style="display: block;"><tspan dy="0" >[HTTP]</tspan></text></g><g id="v-3420"  label-idx="2" cursor="move" transform="matrix(1,0,0,1,1579,780.7999877929688)" style="cursor: default; opacity: 1;"><rect joint-selector="rect" id="v-3426" fill="#ffffff" rx="3" ry="3"  width="0" height="0" transform="matrix(1,0,0,1,0,0)" display="none"></rect><text joint-selector="text" id="v-3425" fill="#000000" font-size="14" text-anchor="middle" pointer-events="none"></text></g></g><g  display="none" style="display: none;"></g><g  id="v-3431" display="none"><g  id="v-3416"><path  end="source" d="M 26 0 L 0 13 L 26 26 z"></path></g><g  id="v-3417"><path  end="target" d="M 26 0 L 0 13 L 26 26 z"></path></g></g><g  id="v-3430" display="none"><g  id="v-3415" transform="translate(1474.0979233173143, 678.1868647467984) "><g  event="remove"><circle r="11"></circle><path transform="scale(.8) translate(-16, -16)" d="M24.778,21.419 19.276,15.917 24.777,10.415 21.949,7.585 16.447,13.087 10.945,7.585 8.117,10.415 13.618,15.917 8.116,21.419 10.946,24.248 16.447,18.746 21.948,24.248z"></path><title>Remove link.</title></g><g  event="link:options"><circle r="11" transform="translate(25)"></circle><path fill="white" transform="scale(.55) translate(29, -16)" d="M31.229,17.736c0.064-0.571,0.104-1.148,0.104-1.736s-0.04-1.166-0.104-1.737l-4.377-1.557c-0.218-0.716-0.504-1.401-0.851-2.05l1.993-4.192c-0.725-0.91-1.549-1.734-2.458-2.459l-4.193,1.994c-0.647-0.347-1.334-0.632-2.049-0.849l-1.558-4.378C17.165,0.708,16.588,0.667,16,0.667s-1.166,0.041-1.737,0.105L12.707,5.15c-0.716,0.217-1.401,0.502-2.05,0.849L6.464,4.005C5.554,4.73,4.73,5.554,4.005,6.464l1.994,4.192c-0.347,0.648-0.632,1.334-0.849,2.05l-4.378,1.557C0.708,14.834,0.667,15.412,0.667,16s0.041,1.165,0.105,1.736l4.378,1.558c0.217,0.715,0.502,1.401,0.849,2.049l-1.994,4.193c0.725,0.909,1.549,1.733,2.459,2.458l4.192-1.993c0.648,0.347,1.334,0.633,2.05,0.851l1.557,4.377c0.571,0.064,1.148,0.104,1.737,0.104c0.588,0,1.165-0.04,1.736-0.104l1.558-4.377c0.715-0.218,1.399-0.504,2.049-0.851l4.193,1.993c0.909-0.725,1.733-1.549,2.458-2.458l-1.993-4.193c0.347-0.647,0.633-1.334,0.851-2.049L31.229,17.736zM16,20.871c-2.69,0-4.872-2.182-4.872-4.871c0-2.69,2.182-4.872,4.872-4.872c2.689,0,4.871,2.182,4.871,4.872C20.871,18.689,18.689,20.871,16,20.871z"></path><title>Link options.</title></g></g></g></g><!--z-index:124--><g   id="j_216" ><path  stroke="#a9c7d1" d="M 2189 945 L 2489 945" id="v-3444" stroke-width="2" stroke-dasharray="8 8" fill="none" style="opacity: 1;"></path><path  fill="black" stroke="black" d="M 0 0 0 0" transform="matrix(1,0,0,1,2189,945)"></path><path  fill="#a9c7d1" stroke="#a9c7d1" d="M 20 0 L 0 10 L 20 20 z" id="v-3446" transform="matrix(-1,1.2246467991473532e-16,-1.2246467991473532e-16,-1,2489,955)" style="opacity: 1;"></path><path  d="M 2189 945 L 2489 945" id="v-3445" fill="none" style="cursor: auto; pointer-events: visiblepainted;"></path><g ><g id="v-3435"  label-idx="0" cursor="move" transform="matrix(1,0,0,1,2339,931.5999755859375)" style="cursor: default; opacity: 1;"><rect joint-selector="rect" id="v-3439" fill="#111111" rx="3" ry="3" pointer-events="none" width="86.1460952758789" height="32.38178253173828" transform="matrix(1,0,0,1,-43.1,-16.1)"></rect><text joint-selector="text" id="v-3438" font-size="24px" xml:space="preserve" y="0.8em" fill="#a9c7d1" text-anchor="middle" pointer-events="none" font-family="Open Sans, Tahoma, Arial" font-weight="normal" transform="matrix(1,0,0,1,0,-10)"><tspan dy="0" >Notifies</tspan></text></g><g id="v-3436"  label-idx="1" cursor="move" transform="matrix(1,0,0,1,2339,962)" style="cursor: default; opacity: 1;"><rect joint-selector="rect" id="v-3441" fill="#111111" rx="3" ry="3"  pointer-events="none" width="101.83102416992188" height="22.526458740234375" transform="matrix(1,0,0,1,-50.9,-11.3)" style="display: block;"></rect><text joint-selector="text" id="v-3440" font-size="16.799999999999997px" xml:space="preserve" y="0.8em" fill="#a9c7d1" text-anchor="middle" pointer-events="none"  font-family="Open Sans, Tahoma, Arial" font-weight="normal" transform="matrix(1,0,0,1,0,-6.4)" style="display: block;"><tspan dy="0" >[HTTP/SMTP]</tspan></text></g><g id="v-3437"  label-idx="2" cursor="move" transform="matrix(1,0,0,1,2329,970.4000244140625)" style="cursor: default; opacity: 1;"><rect joint-selector="rect" id="v-3443" fill="#ffffff" rx="3" ry="3"  width="0" height="0" transform="matrix(1,0,0,1,0,0)" display="none"></rect><text joint-selector="text" id="v-3442" fill="#000000" font-size="14" text-anchor="middle" pointer-events="none"></text></g></g><g  display="none" style="display: none;"></g><g  id="v-3448" display="none"><g  id="v-3433"><path  end="source" d="M 26 0 L 0 13 L 26 26 z"></path></g><g  id="v-3434"><path  end="target" d="M 26 0 L 0 13 L 26 26 z"></path></g></g><g  id="v-3447" display="none"><g  id="v-3432" transform="translate(2229, 945) "><g  event="remove"><circle r="11"></circle><path transform="scale(.8) translate(-16, -16)" d="M24.778,21.419 19.276,15.917 24.777,10.415 21.949,7.585 16.447,13.087 10.945,7.585 8.117,10.415 13.618,15.917 8.116,21.419 10.946,24.248 16.447,18.746 21.948,24.248z"></path><title>Remove link.</title></g><g  event="link:options"><circle r="11" transform="translate(25)"></circle><path fill="white" transform="scale(.55) translate(29, -16)" d="M31.229,17.736c0.064-0.571,0.104-1.148,0.104-1.736s-0.04-1.166-0.104-1.737l-4.377-1.557c-0.218-0.716-0.504-1.401-0.851-2.05l1.993-4.192c-0.725-0.91-1.549-1.734-2.458-2.459l-4.193,1.994c-0.647-0.347-1.334-0.632-2.049-0.849l-1.558-4.378C17.165,0.708,16.588,0.667,16,0.667s-1.166,0.041-1.737,0.105L12.707,5.15c-0.716,0.217-1.401,0.502-2.05,0.849L6.464,4.005C5.554,4.73,4.73,5.554,4.005,6.464l1.994,4.192c-0.347,0.648-0.632,1.334-0.849,2.05l-4.378,1.557C0.708,14.834,0.667,15.412,0.667,16s0.041,1.165,0.105,1.736l4.378,1.558c0.217,0.715,0.502,1.401,0.849,2.049l-1.994,4.193c0.725,0.909,1.549,1.733,2.459,2.458l4.192-1.993c0.648,0.347,1.334,0.633,2.05,0.851l1.557,4.377c0.571,0.064,1.148,0.104,1.737,0.104c0.588,0,1.165-0.04,1.736-0.104l1.558-4.377c0.715-0.218,1.399-0.504,2.049-0.851l4.193,1.993c0.909-0.725,1.733-1.549,2.458-2.458l-1.993-4.193c0.347-0.647,0.633-1.334,0.851-2.049L31.229,17.736zM16,20.871c-2.69,0-4.872-2.182-4.872-4.871c0-2.69,2.182-4.872,4.872-4.872c2.689,0,4.871,2.182,4.871,4.872C20.871,18.689,18.689,20.871,16,20.871z"></path><title>Link options.</title></g></g></g></g><!--z-index:125--><!--z-index:126--><!--z-index:127--><!--z-index:128--><!--z-index:129--><!--z-index:130--><!--z-index:131--><!--z-index:132--><!--z-index:133--><!--z-index:134--><!--z-index:135--><!--z-index:136--><!--z-index:137--><!--z-index:138--><!--z-index:139--><!--z-index:140--><!--z-index:141--><!--z-index:142--><!--z-index:143--><!--z-index:144--><!--z-index:145--><!--z-index:146--><!--z-index:147--><!--z-index:148--><!--z-index:149--><!--z-index:150--><!--z-index:151--><!--z-index:152--><!--z-index:153--><!--z-index:154--><!--z-index:155--><!--z-index:156--><!--z-index:157--><!--z-index:158--><!--z-index:159--><!--z-index:160--><!--z-index:161--><!--z-index:162--><!--z-index:163--><!--z-index:164--><!--z-index:165--><!--z-index:166--><!--z-index:167--><!--z-index:168--><!--z-index:169--><!--z-index:170--><!--z-index:171--><!--z-index:172--><!--z-index:173--><!--z-index:174--><!--z-index:175--><!--z-index:176--><!--z-index:177--><!--z-index:178--><!--z-index:179--><!--z-index:180--><!--z-index:181--><!--z-index:182--><!--z-index:183--><!--z-index:184--><!--z-index:185--><!--z-index:186--><!--z-index:187--><!--z-index:188--><!--z-index:189--><!--z-index:190--><!--z-index:191--><!--z-index:192--><!--z-index:193--><!--z-index:194--><!--z-index:195--><!--z-index:196--><!--z-index:197--><!--z-index:198--><!--z-index:199--><!--z-index:200--><!--z-index:201--><!--z-index:202--><!--z-index:203--><!--z-index:204--><!--z-index:205--><!--z-index:206--><!--z-index:207--><!--z-index:208--><!--z-index:209--><!--z-index:210--><!--z-index:211--><!--z-index:212--><!--z-index:213--><!--z-index:214--><!--z-index:215--><!--z-index:216--><!--z-index:217--><!--z-index:218--><!--z-index:219--><!--z-index:220--><!--z-index:221--><!--z-index:222--><!--z-index:223--><!--z-index:224--><!--z-index:225--><!--z-index:226--><!--z-index:227--><!--z-index:228--><!--z-index:229--><!--z-index:230--><!--z-index:231--><!--z-index:232--><!--z-index:233--><!--z-index:234--><!--z-index:235--><!--z-index:236--><!--z-index:237--><!--z-index:238--><!--z-index:239--><!--z-index:240--><!--z-index:241--><!--z-index:242--><!--z-index:243--><!--z-index:244--><!--z-index:245--><!--z-index:246--><!--z-index:247--><!--z-index:248--><!--z-index:249--><!--z-index:250--><!--z-index:251--><!--z-index:252--><!--z-index:253--><!--z-index:254--><!--z-index:255--><!--z-index:256--><!--z-index:257--><!--z-index:258--><!--z-index:259--><!--z-index:260--><!--z-index:261--><!--z-index:262--><!--z-index:263--><!--z-index:264--><!--z-index:265--><!--z-index:266--><!--z-index:267--><!--z-index:268--><!--z-index:269--><!--z-index:270--><!--z-index:271--><!--z-index:272--><!--z-index:273--><!--z-index:274--><!--z-index:275--><!--z-index:276--><!--z-index:277--><!--z-index:278--><!--z-index:279--><!--z-index:280--><!--z-index:281--><!--z-index:282--><!--z-index:283--><!--z-index:284--><!--z-index:285--><!--z-index:286--><!--z-index:287--><!--z-index:288--></g><g ></g><g ></g><g ></g></g></svg>