<svg xmlns="http://www.w3.org/2000/svg" xmlns:xlink="http://www.w3.org/1999/xlink" version="1.1" viewBox="0 0 3910 1678" style="background: #111111"><defs joint-selector="defs"></defs><g joint-selector="layers"  transform="matrix(1,0,0,1,0,0)"><g ></g><g ><!--z-index:0--><!--z-index:1--><!--z-index:2--><!--z-index:3--><!--z-index:4--><!--z-index:5--><!--z-index:6--><!--z-index:7--><!--z-index:8--><!--z-index:9--><!--z-index:10--><!--z-index:11--><!--z-index:12--><!--z-index:13--><!--z-index:14--><!--z-index:15--><!--z-index:16--><!--z-index:17--><!--z-index:18--><!--z-index:19--><!--z-index:20--><!--z-index:21--><!--z-index:22--><!--z-index:23--><!--z-index:24--><!--z-index:25--><!--z-index:26--><!--z-index:27--><!--z-index:28--><!--z-index:29--><!--z-index:30--><!--z-index:31--><!--z-index:32--><!--z-index:33--><!--z-index:34--><!--z-index:35--><!--z-index:36--><!--z-index:37--><g   id="j_199"  transform="translate(20,1634)"><g id="v-2978"><text  id="v-2979" font-size="24px" xml:space="preserve" y="0.8em" font-weight="normal" text-anchor="start" fill="#cccccc" pointer-events="none" display="block" font-family="Open Sans, Tahoma, Arial"><tspan dy="0"  display="none">Tuesday, June 2, 2026 at 4:01 PM Eastern Daylight Time</tspan></text></g></g><!--z-index:38--><g   id="j_198"  transform="translate(20,1600)"><g id="v-2976"><text  id="v-2977" font-size="24px" xml:space="preserve" y="0.8em" font-weight="normal" text-anchor="start" fill="#cccccc" pointer-events="none" display="block" font-family="Open Sans, Tahoma, Arial"><tspan dy="0"  display="none">The shared Spring Boot daemon pattern (pollerd shown): event consume -&gt; expand -&gt; logic -&gt; DAO + Minion RPC.</tspan></text></g></g><!--z-index:39--><g   id="j_197"  transform="translate(20,1554)"><g id="v-2974"><text  id="v-2975" font-size="36px" xml:space="preserve" y="0.8em" font-weight="normal" text-anchor="start" fill="#cccccc" pointer-events="none" display="block" font-family="Open Sans, Tahoma, Arial"><tspan dy="0"  display="none">Component View: Delta-V - pollerd</tspan></text></g></g><!--z-index:40--><g   id="j_202"  transform="translate(199,148)" style=""><g id="v-3001"><rect  id="v-3002" width="3510" height="1272" rx="0" ry="0" stroke-width="2" pointer-events="none" stroke="#053b53" fill="#111111" stroke-dasharray=""></rect><text  id="v-3003" font-size="33.599999999999994px" xml:space="preserve" y="1233" font-weight="bold" text-anchor="start" pointer-events="visible" font-family="Open Sans, Tahoma, Arial" fill="#fdfcf7" transform="matrix(1,0,0,1,15,0)"><tspan dy="0" >Delta-V</tspan></text><text  id="v-3004" font-size="16.799999999999997px" xml:space="preserve" y="1257" font-weight="normal" text-anchor="start" pointer-events="visible" font-family="Open Sans, Tahoma, Arial" fill="#fdfcf7" transform="matrix(1,0,0,1,15,0)"><tspan dy="0" >[Software System]</tspan></text><image  id="v-3005" pointer-events="visible"></image></g></g><!--z-index:41--><g   id="j_201"  transform="translate(219,302)" style=""><g id="v-2996"><rect  id="v-2997" width="2740" height="1019" rx="0" ry="0" stroke-width="2" pointer-events="none" stroke="#053b53" fill="#111111" stroke-dasharray=""></rect><text  id="v-2998" font-size="33.599999999999994px" xml:space="preserve" y="980" font-weight="bold" text-anchor="start" pointer-events="visible" font-family="Open Sans, Tahoma, Arial" fill="#fdfcf7" transform="matrix(1,0,0,1,15,0)"><tspan dy="0" >pollerd</tspan></text><text  id="v-2999" font-size="16.799999999999997px" xml:space="preserve" y="1004" font-weight="normal" text-anchor="start" pointer-events="visible" font-family="Open Sans, Tahoma, Arial" fill="#fdfcf7" transform="matrix(1,0,0,1,15,0)"><tspan dy="0" >[Container]</tspan></text><image  id="v-3000" pointer-events="visible"></image></g></g><!--z-index:42--><g   id="j_207"  transform="translate(3239,168)" style=""><g  id="v-3064" style="opacity: 1;"><path  d="M 30,0 a 30,150 0,0,1 0 300 a 30,150 0,0,1 0 -300 l 390,0 a 30,150 0,0,1 0 300 l -390,0" id="v-3065" stroke-width="2" pointer-events="visiblePainted" fill="#19c3b2" stroke="#17b0a0" stroke-dasharray=""></path><rect  id="v-3066" stroke-width="0" pointer-events="visiblePainted" fill="none" stroke="none" width="420" height="300" x="30" y="0"></rect><text  id="v-3067" font-size="30.799999999999997px" xml:space="preserve" y="91.2" font-weight="bold" text-anchor="middle" pointer-events="visible" font-family="Open Sans, Tahoma, Arial" fill="#08313f" dominant-baseline="hanging" transform="matrix(1,0,0,1,240,0)"><tspan dy="0" >Kafka</tspan></text><text  id="v-3068" font-size="15.399999999999999px" xml:space="preserve" y="130" text-anchor="middle" font-family="Open Sans, Tahoma, Arial" fill="#08313f" dominant-baseline="hanging" transform="matrix(1,0,0,1,240,0)" style="display: block;"><tspan dy="0" >[Container: Apache Kafka]</tspan></text><text  id="v-3069" font-size="22px" xml:space="preserve" y="160.39999999999998" text-anchor="middle" font-family="Open Sans, Tahoma, Arial" fill="#08313f" dominant-baseline="hanging" transform="matrix(1,0,0,1,240,0)" style="display: block;"><tspan dy="0" >Event + RPC spine and sink</tspan><tspan dy="1.2em" x="0" >transport.</tspan></text><g  id="v-3070" font-weight="normal" text-anchor="middle" color="#08313f" transform="matrix(1,0,0,1,237.5,268)" display="none"><g ></g><g ></g><g ></g><g ></g></g><image  id="v-3071"></image></g></g><!--z-index:43--><g   id="j_208"  transform="translate(3239,922)" style=""><g  id="v-3075" style="opacity: 1;"><path  d="M 0,30 a 225,30 0,0,0 450 0 a 225,30 0,0,0 -450 0 l 0,240 a 225,30 0,0,0 450 0 l 0,-240" id="v-3076" stroke-width="2" pointer-events="visiblePainted" fill="#0e7c9d" stroke="#0d708d" stroke-dasharray=""></path><rect  id="v-3077" stroke-width="0" pointer-events="visiblePainted" fill="none" stroke="none" width="450" height="270" x="0" y="30"></rect><text  id="v-3078" font-size="30.799999999999997px" xml:space="preserve" y="119.4" font-weight="bold" text-anchor="middle" pointer-events="visible" font-family="Open Sans, Tahoma, Arial" fill="#fdfcf7" dominant-baseline="hanging" transform="matrix(1,0,0,1,225,0)"><tspan dy="0" >PostgreSQL</tspan></text><text  id="v-3079" font-size="15.399999999999999px" xml:space="preserve" y="158.2" text-anchor="middle" font-family="Open Sans, Tahoma, Arial" fill="#fdfcf7" dominant-baseline="hanging" transform="matrix(1,0,0,1,225,0)" style="display: block;"><tspan dy="0" >[Container: PostgreSQL 15]</tspan></text><text  id="v-3080" font-size="22px" xml:space="preserve" y="188.6" text-anchor="middle" font-family="Open Sans, Tahoma, Arial" fill="#fdfcf7" dominant-baseline="hanging" transform="matrix(1,0,0,1,225,0)" style="display: block;"><tspan dy="0" >Nodes, events, alarms, outages.</tspan></text><g  id="v-3081" font-weight="normal" text-anchor="middle" color="#fdfcf7" transform="matrix(1,0,0,1,222.5,268)" display="none"><g ></g><g ></g><g ></g><g ></g></g><image  id="v-3082"></image></g></g><!--z-index:44--><g   id="j_200"  transform="translate(239,322)" style=""><g  id="v-2989" style="opacity: 1;"><rect  id="v-2990" rx="1" ry="1" stroke-width="2" pointer-events="visiblePainted" fill="#0e7c9d" stroke="#0d708d" stroke-dasharray="" width="450" height="300"></rect><text  id="v-2991" font-size="30.799999999999997px" xml:space="preserve" y="91.2" font-weight="bold" text-anchor="middle" pointer-events="visible" font-family="Open Sans, Tahoma, Arial" fill="#fdfcf7" dominant-baseline="hanging" transform="matrix(1,0,0,1,225,0)"><tspan dy="0" >Kafka Event Transport</tspan></text><text  id="v-2992" font-size="15.399999999999999px" xml:space="preserve" y="130" text-anchor="middle" font-family="Open Sans, Tahoma, Arial" fill="#fdfcf7" dominant-baseline="hanging" transform="matrix(1,0,0,1,225,0)" style="display: block;"><tspan dy="0" >[Component: KafkaEventTransportConfiguration]</tspan></text><text  id="v-2993" font-size="22px" xml:space="preserve" y="160.39999999999998" text-anchor="middle" font-family="Open Sans, Tahoma, Arial" fill="#fdfcf7" dominant-baseline="hanging" transform="matrix(1,0,0,1,225,0)" style="display: block;"><tspan dy="0" >Consumes and produces OpenNMS</tspan><tspan dy="1.2em" x="0" >events over Kafka.</tspan></text><g  id="v-2994" color="#fdfcf7" transform="matrix(1,0,0,1,222.5,268)" display="none"><g ></g><g ></g><g ></g><g ></g></g><image  id="v-2995"></image></g></g><!--z-index:45--><g   id="j_203"  transform="translate(989,322)" style=""><g  id="v-3015" style="opacity: 1;"><rect  id="v-3016" rx="1" ry="1" stroke-width="2" pointer-events="visiblePainted" fill="#0e7c9d" stroke="#0d708d" stroke-dasharray="" width="450" height="300"></rect><text  id="v-3017" font-size="30.799999999999997px" xml:space="preserve" y="54.24000000000001" font-weight="bold" text-anchor="middle" pointer-events="visible" font-family="Open Sans, Tahoma, Arial" fill="#fdfcf7" dominant-baseline="hanging" transform="matrix(1,0,0,1,225,0)"><tspan dy="0" >Event Expander /</tspan><tspan dy="1.2em" x="0" >Enrichment</tspan></text><text  id="v-3018" font-size="15.399999999999999px" xml:space="preserve" y="130" text-anchor="middle" font-family="Open Sans, Tahoma, Arial" fill="#fdfcf7" dominant-baseline="hanging" transform="matrix(1,0,0,1,225,0)" style="display: block;"><tspan dy="0" >[Component: EventConfEnrichmentService,</tspan><tspan dy="1.2em" x="0" >EventIpcManagerEnrichingWrapper,</tspan><tspan dy="1.2em" x="0" >DaemonEventConfDao]</tspan></text><text  id="v-3019" font-size="22px" xml:space="preserve" y="197.35999999999999" text-anchor="middle" font-family="Open Sans, Tahoma, Arial" fill="#fdfcf7" dominant-baseline="hanging" transform="matrix(1,0,0,1,225,0)" style="display: block;"><tspan dy="0" >Expands and enriches events from</tspan><tspan dy="1.2em" x="0" >event-conf (logmsg, descr, severity).</tspan></text><g  id="v-3020" color="#fdfcf7" transform="matrix(1,0,0,1,222.5,268)" display="none"><g ></g><g ></g><g ></g><g ></g></g><image  id="v-3021"></image></g></g><!--z-index:46--><g   id="j_204"  transform="translate(1739,322)" style=""><g  id="v-3028" style="opacity: 1;"><rect  id="v-3029" rx="1" ry="1" stroke-width="2" pointer-events="visiblePainted" fill="#0e7c9d" stroke="#0d708d" stroke-dasharray="" width="450" height="300"></rect><text  id="v-3030" font-size="30.799999999999997px" xml:space="preserve" y="91.2" font-weight="bold" text-anchor="middle" pointer-events="visible" font-family="Open Sans, Tahoma, Arial" fill="#fdfcf7" dominant-baseline="hanging" transform="matrix(1,0,0,1,225,0)"><tspan dy="0" >Pollerd Service Logic</tspan></text><text  id="v-3031" font-size="15.399999999999999px" xml:space="preserve" y="130" text-anchor="middle" font-family="Open Sans, Tahoma, Arial" fill="#fdfcf7" dominant-baseline="hanging" transform="matrix(1,0,0,1,225,0)" style="display: block;"><tspan dy="0" >[Component: Pollerd]</tspan></text><text  id="v-3032" font-size="22px" xml:space="preserve" y="160.39999999999998" text-anchor="middle" font-family="Open Sans, Tahoma, Arial" fill="#fdfcf7" dominant-baseline="hanging" transform="matrix(1,0,0,1,225,0)" style="display: block;"><tspan dy="0" >Schedules pollable services and</tspan><tspan dy="1.2em" x="0" >detects outages.</tspan></text><g  id="v-3033" color="#fdfcf7" transform="matrix(1,0,0,1,222.5,268)" display="none"><g ></g><g ></g><g ></g><g ></g></g><image  id="v-3034"></image></g></g><!--z-index:47--><g   id="j_205"  transform="translate(2489,322)" style=""><g  id="v-3041" style="opacity: 1;"><rect  id="v-3042" rx="1" ry="1" stroke-width="2" pointer-events="visiblePainted" fill="#0e7c9d" stroke="#0d708d" stroke-dasharray="" width="450" height="300"></rect><text  id="v-3043" font-size="30.799999999999997px" xml:space="preserve" y="91.2" font-weight="bold" text-anchor="middle" pointer-events="visible" font-family="Open Sans, Tahoma, Arial" fill="#fdfcf7" dominant-baseline="hanging" transform="matrix(1,0,0,1,225,0)"><tspan dy="0" >Kafka RPC Client</tspan></text><text  id="v-3044" font-size="15.399999999999999px" xml:space="preserve" y="130" text-anchor="middle" font-family="Open Sans, Tahoma, Arial" fill="#fdfcf7" dominant-baseline="hanging" transform="matrix(1,0,0,1,225,0)" style="display: block;"><tspan dy="0" >[Component: KafkaRpcClientConfiguration]</tspan></text><text  id="v-3045" font-size="22px" xml:space="preserve" y="160.39999999999998" text-anchor="middle" font-family="Open Sans, Tahoma, Arial" fill="#fdfcf7" dominant-baseline="hanging" transform="matrix(1,0,0,1,225,0)" style="display: block;"><tspan dy="0" >Dispatches device monitor requests</tspan><tspan dy="1.2em" x="0" >to Minion.</tspan></text><g  id="v-3046" color="#fdfcf7" transform="matrix(1,0,0,1,222.5,268)" display="none"><g ></g><g ></g><g ></g><g ></g></g><image  id="v-3047"></image></g></g><!--z-index:48--><g   id="j_206"  transform="translate(2489,922)" style=""><g  id="v-3054" style="opacity: 1;"><rect  id="v-3055" rx="1" ry="1" stroke-width="2" pointer-events="visiblePainted" fill="#0e7c9d" stroke="#0d708d" stroke-dasharray="" width="450" height="300"></rect><text  id="v-3056" font-size="30.799999999999997px" xml:space="preserve" y="81.96000000000001" font-weight="bold" text-anchor="middle" pointer-events="visible" font-family="Open Sans, Tahoma, Arial" fill="#fdfcf7" dominant-baseline="hanging" transform="matrix(1,0,0,1,225,0)"><tspan dy="0" >JDBC DAO Layer</tspan></text><text  id="v-3057" font-size="15.399999999999999px" xml:space="preserve" y="120.76" text-anchor="middle" font-family="Open Sans, Tahoma, Arial" fill="#fdfcf7" dominant-baseline="hanging" transform="matrix(1,0,0,1,225,0)" style="display: block;"><tspan dy="0" >[Component: JdbcEventUtil, JdbcDistPollerDao,</tspan><tspan dy="1.2em" x="0" >DaemonDataSourceConfiguration]</tspan></text><text  id="v-3058" font-size="22px" xml:space="preserve" y="169.64" text-anchor="middle" font-family="Open Sans, Tahoma, Arial" fill="#fdfcf7" dominant-baseline="hanging" transform="matrix(1,0,0,1,225,0)" style="display: block;"><tspan dy="0" >Reads/writes nodes, services,</tspan><tspan dy="1.2em" x="0" >outages.</tspan></text><g  id="v-3059" color="#fdfcf7" transform="matrix(1,0,0,1,222.5,268)" display="none"><g ></g><g ></g><g ></g><g ></g></g><image  id="v-3060"></image></g></g><!--z-index:49--><g   id="j_209" ><path  stroke="#08313f" d="M 3239 240 L 3052 175 C 3046 173 3039.6666666666665 172 3033 172 L 999 172 C 992.3333333333333 172 985.9999999999999 173.66666666666666 980 177 L 689 343" id="v-3100" stroke-width="2" stroke-dasharray="8 8" fill="none" style="opacity: 1;"></path><path  fill="black" stroke="black" d="M 0 0 0 0" transform="matrix(-0.9448014219534485,-0.32764351523377,0.32764351523377,-0.9448014219534485,3239,239.97000122070312)"></path><path  fill="#08313f" stroke="#08313f" d="M 20 0 L 0 10 L 20 20 z" id="v-3102" transform="matrix(0.8682413637412602,-0.496142050514484,0.496142050514484,0.8682413637412602,684.0385999394738,334.74757376226347)" style="opacity: 1;"></path><path  d="M 3239 240 L 3052 175 C 3046 173 3039.6666666666665 172 3033 172 L 999 172 C 992.3333333333333 172 985.9999999999999 173.66666666666666 980 177 L 689 343" id="v-3101" fill="none" style="cursor: auto; pointer-events: visiblepainted;"></path><g ><g id="v-3091"  label-idx="0" cursor="move" transform="matrix(1,0,0,1,1947.2049560546875,158.60000610351562)" style="cursor: default; opacity: 1;"><rect joint-selector="rect" id="v-3095" fill="#111111" rx="3" ry="3" pointer-events="none" width="169.59878540039062" height="32.64299392700195" transform="matrix(1,0,0,1,-84.8,-16.3)"></rect><text joint-selector="text" id="v-3094" font-size="24px" xml:space="preserve" y="0.8em" fill="#08313f" text-anchor="middle" pointer-events="none" font-family="Open Sans, Tahoma, Arial" font-weight="normal" transform="matrix(1,0,0,1,0,-10.2)"><tspan dy="0" >Delivers events</tspan></text></g><g id="v-3092"  label-idx="1" cursor="move" transform="matrix(1,0,0,1,1947.2049560546875,189)" style="cursor: default; opacity: 1;"><rect joint-selector="rect" id="v-3097" fill="#111111" rx="3" ry="3"  pointer-events="none" width="54.42692947387695" height="23.16599464416504" transform="matrix(1,0,0,1,-27.2,-11.6)" style="display: block;"></rect><text joint-selector="text" id="v-3096" font-size="16.799999999999997px" xml:space="preserve" y="0.8em" fill="#08313f" text-anchor="middle" pointer-events="none"  font-family="Open Sans, Tahoma, Arial" font-weight="normal" transform="matrix(1,0,0,1,0,-7.1)" style="display: block;"><tspan dy="0" >[Kafka]</tspan></text></g><g id="v-3093"  label-idx="2" cursor="move" transform="matrix(1,0,0,1,1937.2049560546875,197.39999389648438)" style="cursor: default; opacity: 1;"><rect joint-selector="rect" id="v-3099" fill="#ffffff" rx="3" ry="3"  width="0" height="0" transform="matrix(1,0,0,1,0,0)" display="none"></rect><text joint-selector="text" id="v-3098" fill="#000000" font-size="14" text-anchor="middle" pointer-events="none"></text></g></g><g  display="none" style="display: none;"><g  transform="translate(3043, 172)" id="v-3210"><circle  idx="0" r="10"></circle><path  idx="0" d="M16,5.333c-7.732,0-14,4.701-14,10.5c0,1.982,0.741,3.833,2.016,5.414L2,25.667l5.613-1.441c2.339,1.317,5.237,2.107,8.387,2.107c7.732,0,14-4.701,14-10.5C30,10.034,23.732,5.333,16,5.333z" transform="translate(5, -33)"></path><path  idx="0" transform="scale(.8) translate(9.5, -37)" d="M24.778,21.419 19.276,15.917 24.777,10.415 21.949,7.585 16.447,13.087 10.945,7.585 8.117,10.415 13.618,15.917 8.116,21.419 10.946,24.248 16.447,18.746 21.948,24.248z"><title>Remove vertex.</title></path></g><g  transform="translate(989, 172)" id="v-3211"><circle  idx="1" r="10"></circle><path  idx="1" d="M16,5.333c-7.732,0-14,4.701-14,10.5c0,1.982,0.741,3.833,2.016,5.414L2,25.667l5.613-1.441c2.339,1.317,5.237,2.107,8.387,2.107c7.732,0,14-4.701,14-10.5C30,10.034,23.732,5.333,16,5.333z" transform="translate(5, -33)"></path><path  idx="1" transform="scale(.8) translate(9.5, -37)" d="M24.778,21.419 19.276,15.917 24.777,10.415 21.949,7.585 16.447,13.087 10.945,7.585 8.117,10.415 13.618,15.917 8.116,21.419 10.946,24.248 16.447,18.746 21.948,24.248z"><title>Remove vertex.</title></path></g></g><g  id="v-3104" display="none"><g  id="v-3089"><path  end="source" d="M 26 0 L 0 13 L 26 26 z"></path></g><g  id="v-3090"><path  end="target" d="M 26 0 L 0 13 L 26 26 z"></path></g></g><g  id="v-3103" display="none"><g  id="v-3086" transform="translate(3201.2174031978284, 226.86701180673177) "><g  event="remove"><circle r="11"></circle><path transform="scale(.8) translate(-16, -16)" d="M24.778,21.419 19.276,15.917 24.777,10.415 21.949,7.585 16.447,13.087 10.945,7.585 8.117,10.415 13.618,15.917 8.116,21.419 10.946,24.248 16.447,18.746 21.948,24.248z"></path><title>Remove link.</title></g><g  event="link:options"><circle r="11" transform="translate(25)"></circle><path fill="white" transform="scale(.55) translate(29, -16)" d="M31.229,17.736c0.064-0.571,0.104-1.148,0.104-1.736s-0.04-1.166-0.104-1.737l-4.377-1.557c-0.218-0.716-0.504-1.401-0.851-2.05l1.993-4.192c-0.725-0.91-1.549-1.734-2.458-2.459l-4.193,1.994c-0.647-0.347-1.334-0.632-2.049-0.849l-1.558-4.378C17.165,0.708,16.588,0.667,16,0.667s-1.166,0.041-1.737,0.105L12.707,5.15c-0.716,0.217-1.401,0.502-2.05,0.849L6.464,4.005C5.554,4.73,4.73,5.554,4.005,6.464l1.994,4.192c-0.347,0.648-0.632,1.334-0.849,2.05l-4.378,1.557C0.708,14.834,0.667,15.412,0.667,16s0.041,1.165,0.105,1.736l4.378,1.558c0.217,0.715,0.502,1.401,0.849,2.049l-1.994,4.193c0.725,0.909,1.549,1.733,2.459,2.458l4.192-1.993c0.648,0.347,1.334,0.633,2.05,0.851l1.557,4.377c0.571,0.064,1.148,0.104,1.737,0.104c0.588,0,1.165-0.04,1.736-0.104l1.558-4.377c0.715-0.218,1.399-0.504,2.049-0.851l4.193,1.993c0.909-0.725,1.733-1.549,2.458-2.458l-1.993-4.193c0.347-0.647,0.633-1.334,0.851-2.049L31.229,17.736zM16,20.871c-2.69,0-4.872-2.182-4.872-4.871c0-2.69,2.182-4.872,4.872-4.872c2.689,0,4.871,2.182,4.871,4.872C20.871,18.689,18.689,20.871,16,20.871z"></path><title>Link options.</title></g></g></g></g><!--z-index:50--><g   id="j_210" ><path  stroke="#08313f" d="M 689 472 L 989 472" id="v-3114" stroke-width="2" stroke-dasharray="8 8" fill="none" style="opacity: 1;"></path><path  fill="black" stroke="black" d="M 0 0 0 0" transform="matrix(1,0,0,1,689,472)"></path><path  fill="#08313f" stroke="#08313f" d="M 20 0 L 0 10 L 20 20 z" id="v-3116" transform="matrix(-1,1.2246467991473532e-16,-1.2246467991473532e-16,-1,989,482)" style="opacity: 1;"></path><path  d="M 689 472 L 989 472" id="v-3115" fill="none" style="cursor: auto; pointer-events: visiblepainted;"></path><g ><g id="v-3108"  label-idx="0" cursor="move" transform="matrix(1,0,0,1,839,472)" style="cursor: default; opacity: 1;"><rect joint-selector="rect" id="v-3111" fill="#111111" rx="3" ry="3" pointer-events="none" width="126.62322998046875" height="32.64299392700195" transform="matrix(1,0,0,1,-63.3,-16.3)"></rect><text joint-selector="text" id="v-3110" font-size="24px" xml:space="preserve" y="0.8em" fill="#08313f" text-anchor="middle" pointer-events="none" font-family="Open Sans, Tahoma, Arial" font-weight="normal" transform="matrix(1,0,0,1,0,-10.2)"><tspan dy="0" >Raw events</tspan></text></g><g id="v-3109"  label-idx="1" cursor="move" transform="matrix(1,0,0,1,829,484)" style="cursor: default; opacity: 1;"><rect joint-selector="rect" id="v-3113" fill="#ffffff" rx="3" ry="3"  width="0" height="0" transform="matrix(1,0,0,1,0,0)" display="none"></rect><text joint-selector="text" id="v-3112" fill="#000000" font-size="14" text-anchor="middle" pointer-events="none"></text></g></g><g  display="none" style="display: none;"></g><g  id="v-3118" display="none"><g  id="v-3106"><path  end="source" d="M 26 0 L 0 13 L 26 26 z"></path></g><g  id="v-3107"><path  end="target" d="M 26 0 L 0 13 L 26 26 z"></path></g></g><g  id="v-3117" display="none"><g  id="v-3105" transform="translate(729, 472) "><g  event="remove"><circle r="11"></circle><path transform="scale(.8) translate(-16, -16)" d="M24.778,21.419 19.276,15.917 24.777,10.415 21.949,7.585 16.447,13.087 10.945,7.585 8.117,10.415 13.618,15.917 8.116,21.419 10.946,24.248 16.447,18.746 21.948,24.248z"></path><title>Remove link.</title></g><g  event="link:options"><circle r="11" transform="translate(25)"></circle><path fill="white" transform="scale(.55) translate(29, -16)" d="M31.229,17.736c0.064-0.571,0.104-1.148,0.104-1.736s-0.04-1.166-0.104-1.737l-4.377-1.557c-0.218-0.716-0.504-1.401-0.851-2.05l1.993-4.192c-0.725-0.91-1.549-1.734-2.458-2.459l-4.193,1.994c-0.647-0.347-1.334-0.632-2.049-0.849l-1.558-4.378C17.165,0.708,16.588,0.667,16,0.667s-1.166,0.041-1.737,0.105L12.707,5.15c-0.716,0.217-1.401,0.502-2.05,0.849L6.464,4.005C5.554,4.73,4.73,5.554,4.005,6.464l1.994,4.192c-0.347,0.648-0.632,1.334-0.849,2.05l-4.378,1.557C0.708,14.834,0.667,15.412,0.667,16s0.041,1.165,0.105,1.736l4.378,1.558c0.217,0.715,0.502,1.401,0.849,2.049l-1.994,4.193c0.725,0.909,1.549,1.733,2.459,2.458l4.192-1.993c0.648,0.347,1.334,0.633,2.05,0.851l1.557,4.377c0.571,0.064,1.148,0.104,1.737,0.104c0.588,0,1.165-0.04,1.736-0.104l1.558-4.377c0.715-0.218,1.399-0.504,2.049-0.851l4.193,1.993c0.909-0.725,1.733-1.549,2.458-2.458l-1.993-4.193c0.347-0.647,0.633-1.334,0.851-2.049L31.229,17.736zM16,20.871c-2.69,0-4.872-2.182-4.872-4.871c0-2.69,2.182-4.872,4.872-4.872c2.689,0,4.871,2.182,4.871,4.872C20.871,18.689,18.689,20.871,16,20.871z"></path><title>Link options.</title></g></g></g></g><!--z-index:51--><g   id="j_211" ><path  stroke="#08313f" d="M 1439 472 L 1739 472" id="v-3131" stroke-width="2" stroke-dasharray="8 8" fill="none" style="opacity: 1;"></path><path  fill="black" stroke="black" d="M 0 0 0 0" transform="matrix(1,0,0,1,1439,472)"></path><path  fill="#08313f" stroke="#08313f" d="M 20 0 L 0 10 L 20 20 z" id="v-3133" transform="matrix(-1,1.2246467991473532e-16,-1.2246467991473532e-16,-1,1739,482)" style="opacity: 1;"></path><path  d="M 1439 472 L 1739 472" id="v-3132" fill="none" style="cursor: auto; pointer-events: visiblepainted;"></path><g ><g id="v-3125"  label-idx="0" cursor="move" transform="matrix(1,0,0,1,1589,472)" style="cursor: default; opacity: 1;"><rect joint-selector="rect" id="v-3128" fill="#111111" rx="3" ry="3" pointer-events="none" width="178.17086791992188" height="32.64299392700195" transform="matrix(1,0,0,1,-89.1,-16.3)"></rect><text joint-selector="text" id="v-3127" font-size="24px" xml:space="preserve" y="0.8em" fill="#08313f" text-anchor="middle" pointer-events="none" font-family="Open Sans, Tahoma, Arial" font-weight="normal" transform="matrix(1,0,0,1,0,-10.2)"><tspan dy="0" >Enriched events</tspan></text></g><g id="v-3126"  label-idx="1" cursor="move" transform="matrix(1,0,0,1,1579,484)" style="cursor: default; opacity: 1;"><rect joint-selector="rect" id="v-3130" fill="#ffffff" rx="3" ry="3"  width="0" height="0" transform="matrix(1,0,0,1,0,0)" display="none"></rect><text joint-selector="text" id="v-3129" fill="#000000" font-size="14" text-anchor="middle" pointer-events="none"></text></g></g><g  display="none" style="display: none;"></g><g  id="v-3135" display="none"><g  id="v-3123"><path  end="source" d="M 26 0 L 0 13 L 26 26 z"></path></g><g  id="v-3124"><path  end="target" d="M 26 0 L 0 13 L 26 26 z"></path></g></g><g  id="v-3134" display="none"><g  id="v-3122" transform="translate(1479, 472) "><g  event="remove"><circle r="11"></circle><path transform="scale(.8) translate(-16, -16)" d="M24.778,21.419 19.276,15.917 24.777,10.415 21.949,7.585 16.447,13.087 10.945,7.585 8.117,10.415 13.618,15.917 8.116,21.419 10.946,24.248 16.447,18.746 21.948,24.248z"></path><title>Remove link.</title></g><g  event="link:options"><circle r="11" transform="translate(25)"></circle><path fill="white" transform="scale(.55) translate(29, -16)" d="M31.229,17.736c0.064-0.571,0.104-1.148,0.104-1.736s-0.04-1.166-0.104-1.737l-4.377-1.557c-0.218-0.716-0.504-1.401-0.851-2.05l1.993-4.192c-0.725-0.91-1.549-1.734-2.458-2.459l-4.193,1.994c-0.647-0.347-1.334-0.632-2.049-0.849l-1.558-4.378C17.165,0.708,16.588,0.667,16,0.667s-1.166,0.041-1.737,0.105L12.707,5.15c-0.716,0.217-1.401,0.502-2.05,0.849L6.464,4.005C5.554,4.73,4.73,5.554,4.005,6.464l1.994,4.192c-0.347,0.648-0.632,1.334-0.849,2.05l-4.378,1.557C0.708,14.834,0.667,15.412,0.667,16s0.041,1.165,0.105,1.736l4.378,1.558c0.217,0.715,0.502,1.401,0.849,2.049l-1.994,4.193c0.725,0.909,1.549,1.733,2.459,2.458l4.192-1.993c0.648,0.347,1.334,0.633,2.05,0.851l1.557,4.377c0.571,0.064,1.148,0.104,1.737,0.104c0.588,0,1.165-0.04,1.736-0.104l1.558-4.377c0.715-0.218,1.399-0.504,2.049-0.851l4.193,1.993c0.909-0.725,1.733-1.549,2.458-2.458l-1.993-4.193c0.347-0.647,0.633-1.334,0.851-2.049L31.229,17.736zM16,20.871c-2.69,0-4.872-2.182-4.872-4.871c0-2.69,2.182-4.872,4.872-4.872c2.689,0,4.871,2.182,4.871,4.872C20.871,18.689,18.689,20.871,16,20.871z"></path><title>Link options.</title></g></g></g></g><!--z-index:52--><g   id="j_212" ><path  stroke="#08313f" d="M 2189 472 L 2489 472" id="v-3148" stroke-width="2" stroke-dasharray="8 8" fill="none" style="opacity: 1;"></path><path  fill="black" stroke="black" d="M 0 0 0 0" transform="matrix(1,0,0,1,2189,472)"></path><path  fill="#08313f" stroke="#08313f" d="M 20 0 L 0 10 L 20 20 z" id="v-3150" transform="matrix(-1,1.2246467991473532e-16,-1.2246467991473532e-16,-1,2489,482)" style="opacity: 1;"></path><path  d="M 2189 472 L 2489 472" id="v-3149" fill="none" style="cursor: auto; pointer-events: visiblepainted;"></path><g ><g id="v-3142"  label-idx="0" cursor="move" transform="matrix(1,0,0,1,2339,472)" style="cursor: default; opacity: 1;"><rect joint-selector="rect" id="v-3145" fill="#111111" rx="3" ry="3" pointer-events="none" width="179.99716186523438" height="61.44299507141113" transform="matrix(1,0,0,1,-90,-30.7)"></rect><text joint-selector="text" id="v-3144" font-size="24px" xml:space="preserve" y="0.8em" fill="#08313f" text-anchor="middle" pointer-events="none" font-family="Open Sans, Tahoma, Arial" font-weight="normal" transform="matrix(1,0,0,1,0,-24.6)"><tspan dy="0" >Requests device</tspan><tspan dy="1.2em" x="0" >poll</tspan></text></g><g id="v-3143"  label-idx="1" cursor="move" transform="matrix(1,0,0,1,2329,498.3999938964844)" style="cursor: default; opacity: 1;"><rect joint-selector="rect" id="v-3147" fill="#ffffff" rx="3" ry="3"  width="0" height="0" transform="matrix(1,0,0,1,0,0)" display="none"></rect><text joint-selector="text" id="v-3146" fill="#000000" font-size="14" text-anchor="middle" pointer-events="none"></text></g></g><g  display="none" style="display: none;"></g><g  id="v-3152" display="none"><g  id="v-3140"><path  end="source" d="M 26 0 L 0 13 L 26 26 z"></path></g><g  id="v-3141"><path  end="target" d="M 26 0 L 0 13 L 26 26 z"></path></g></g><g  id="v-3151" display="none"><g  id="v-3139" transform="translate(2229, 472) "><g  event="remove"><circle r="11"></circle><path transform="scale(.8) translate(-16, -16)" d="M24.778,21.419 19.276,15.917 24.777,10.415 21.949,7.585 16.447,13.087 10.945,7.585 8.117,10.415 13.618,15.917 8.116,21.419 10.946,24.248 16.447,18.746 21.948,24.248z"></path><title>Remove link.</title></g><g  event="link:options"><circle r="11" transform="translate(25)"></circle><path fill="white" transform="scale(.55) translate(29, -16)" d="M31.229,17.736c0.064-0.571,0.104-1.148,0.104-1.736s-0.04-1.166-0.104-1.737l-4.377-1.557c-0.218-0.716-0.504-1.401-0.851-2.05l1.993-4.192c-0.725-0.91-1.549-1.734-2.458-2.459l-4.193,1.994c-0.647-0.347-1.334-0.632-2.049-0.849l-1.558-4.378C17.165,0.708,16.588,0.667,16,0.667s-1.166,0.041-1.737,0.105L12.707,5.15c-0.716,0.217-1.401,0.502-2.05,0.849L6.464,4.005C5.554,4.73,4.73,5.554,4.005,6.464l1.994,4.192c-0.347,0.648-0.632,1.334-0.849,2.05l-4.378,1.557C0.708,14.834,0.667,15.412,0.667,16s0.041,1.165,0.105,1.736l4.378,1.558c0.217,0.715,0.502,1.401,0.849,2.049l-1.994,4.193c0.725,0.909,1.549,1.733,2.459,2.458l4.192-1.993c0.648,0.347,1.334,0.633,2.05,0.851l1.557,4.377c0.571,0.064,1.148,0.104,1.737,0.104c0.588,0,1.165-0.04,1.736-0.104l1.558-4.377c0.715-0.218,1.399-0.504,2.049-0.851l4.193,1.993c0.909-0.725,1.733-1.549,2.458-2.458l-1.993-4.193c0.347-0.647,0.633-1.334,0.851-2.049L31.229,17.736zM16,20.871c-2.69,0-4.872-2.182-4.872-4.871c0-2.69,2.182-4.872,4.872-4.872c2.689,0,4.871,2.182,4.871,4.872C20.871,18.689,18.689,20.871,16,20.871z"></path><title>Link options.</title></g></g></g></g><!--z-index:53--><g   id="j_213" ><path  stroke="#f6d04d" d="M 2939 426 L 3239 364" id="v-3168" stroke-width="4" stroke-dasharray="16 16" fill="none" style="opacity: 1;"></path><path  fill="black" stroke="black" d="M 0 0 0 0" transform="matrix(0.9795631240332379,-0.20113698325828464,0.20113698325828464,0.9795631240332379,2939,425.79998779296875)"></path><path  fill="#f6d04d" stroke="#f6d04d" d="M 40 0 L 0 20 L 40 40 z" id="v-3170" transform="matrix(-0.9795631240332379,0.20113698325828452,-0.20113698325828452,-0.9795631240332379,3243.0226935520805,383.79127061823345)" style="opacity: 1;"></path><path  d="M 2939 426 L 3239 364" id="v-3169" fill="none" style="cursor: auto; pointer-events: visiblepainted;"></path><g ><g id="v-3159"  label-idx="0" cursor="move" transform="matrix(1,0,0,1,3089,381.6000061035156)" style="cursor: default; opacity: 1;"><rect joint-selector="rect" id="v-3163" fill="#111111" rx="3" ry="3" pointer-events="none" width="198.42466735839844" height="61.44299507141113" transform="matrix(1,0,0,1,-99.2,-30.7)"></rect><text joint-selector="text" id="v-3162" font-size="24px" xml:space="preserve" y="0.8em" fill="#f6d04d" text-anchor="middle" pointer-events="none" font-family="Open Sans, Tahoma, Arial" font-weight="normal" transform="matrix(1,0,0,1,0,-24.6)"><tspan dy="0" >RPC</tspan><tspan dy="1.2em" x="0" >request/response</tspan></text></g><g id="v-3160"  label-idx="1" cursor="move" transform="matrix(1,0,0,1,3089,426.3999938964844)" style="cursor: default; opacity: 1;"><rect joint-selector="rect" id="v-3165" fill="#111111" rx="3" ry="3"  pointer-events="none" width="54.42692947387695" height="23.16599464416504" transform="matrix(1,0,0,1,-27.2,-11.6)" style="display: block;"></rect><text joint-selector="text" id="v-3164" font-size="16.799999999999997px" xml:space="preserve" y="0.8em" fill="#f6d04d" text-anchor="middle" pointer-events="none"  font-family="Open Sans, Tahoma, Arial" font-weight="normal" transform="matrix(1,0,0,1,0,-7.1)" style="display: block;"><tspan dy="0" >[Kafka]</tspan></text></g><g id="v-3161"  label-idx="2" cursor="move" transform="matrix(1,0,0,1,3079,434.79998779296875)" style="cursor: default; opacity: 1;"><rect joint-selector="rect" id="v-3167" fill="#ffffff" rx="3" ry="3"  width="0" height="0" transform="matrix(1,0,0,1,0,0)" display="none"></rect><text joint-selector="text" id="v-3166" fill="#000000" font-size="14" text-anchor="middle" pointer-events="none"></text></g></g><g  display="none" style="display: none;"></g><g  id="v-3172" display="none"><g  id="v-3157"><path  end="source" d="M 26 0 L 0 13 L 26 26 z"></path></g><g  id="v-3158"><path  end="target" d="M 26 0 L 0 13 L 26 26 z"></path></g></g><g  id="v-3171" display="none"><g  id="v-3156" transform="translate(2978.1722024738992, 417.90441148872753) "><g  event="remove"><circle r="11"></circle><path transform="scale(.8) translate(-16, -16)" d="M24.778,21.419 19.276,15.917 24.777,10.415 21.949,7.585 16.447,13.087 10.945,7.585 8.117,10.415 13.618,15.917 8.116,21.419 10.946,24.248 16.447,18.746 21.948,24.248z"></path><title>Remove link.</title></g><g  event="link:options"><circle r="11" transform="translate(25)"></circle><path fill="white" transform="scale(.55) translate(29, -16)" d="M31.229,17.736c0.064-0.571,0.104-1.148,0.104-1.736s-0.04-1.166-0.104-1.737l-4.377-1.557c-0.218-0.716-0.504-1.401-0.851-2.05l1.993-4.192c-0.725-0.91-1.549-1.734-2.458-2.459l-4.193,1.994c-0.647-0.347-1.334-0.632-2.049-0.849l-1.558-4.378C17.165,0.708,16.588,0.667,16,0.667s-1.166,0.041-1.737,0.105L12.707,5.15c-0.716,0.217-1.401,0.502-2.05,0.849L6.464,4.005C5.554,4.73,4.73,5.554,4.005,6.464l1.994,4.192c-0.347,0.648-0.632,1.334-0.849,2.05l-4.378,1.557C0.708,14.834,0.667,15.412,0.667,16s0.041,1.165,0.105,1.736l4.378,1.558c0.217,0.715,0.502,1.401,0.849,2.049l-1.994,4.193c0.725,0.909,1.549,1.733,2.459,2.458l4.192-1.993c0.648,0.347,1.334,0.633,2.05,0.851l1.557,4.377c0.571,0.064,1.148,0.104,1.737,0.104c0.588,0,1.165-0.04,1.736-0.104l1.558-4.377c0.715-0.218,1.399-0.504,2.049-0.851l4.193,1.993c0.909-0.725,1.733-1.549,2.458-2.458l-1.993-4.193c0.347-0.647,0.633-1.334,0.851-2.049L31.229,17.736zM16,20.871c-2.69,0-4.872-2.182-4.872-4.871c0-2.69,2.182-4.872,4.872-4.872c2.689,0,4.871,2.182,4.871,4.872C20.871,18.689,18.689,20.871,16,20.871z"></path><title>Link options.</title></g></g></g></g><!--z-index:54--><g   id="j_214" ><path  stroke="#08313f" d="M 2152 622 L 2527 922" id="v-3185" stroke-width="2" stroke-dasharray="8 8" fill="none" style="opacity: 1;"></path><path  fill="black" stroke="black" d="M 0 0 0 0" transform="matrix(0.7808688000832672,0.624695059254128,-0.624695059254128,0.7808688000832672,2151.5,622)"></path><path  fill="#08313f" stroke="#08313f" d="M 20 0 L 0 10 L 20 20 z" id="v-3187" transform="matrix(-0.7808688416748548,-0.6246950072646416,0.6246950072646416,-0.7808688416748548,2520.253144594102,929.8086902472074)" style="opacity: 1;"></path><path  d="M 2152 622 L 2527 922" id="v-3186" fill="none" style="cursor: auto; pointer-events: visiblepainted;"></path><g ><g id="v-3179"  label-idx="0" cursor="move" transform="matrix(1,0,0,1,2339.5,772)" style="cursor: default; opacity: 1;"><rect joint-selector="rect" id="v-3182" fill="#111111" rx="3" ry="3" pointer-events="none" width="153.14566040039062" height="61.44299507141113" transform="matrix(1,0,0,1,-76.6,-30.7)"></rect><text joint-selector="text" id="v-3181" font-size="24px" xml:space="preserve" y="0.8em" fill="#08313f" text-anchor="middle" pointer-events="none" font-family="Open Sans, Tahoma, Arial" font-weight="normal" transform="matrix(1,0,0,1,0,-24.6)"><tspan dy="0" >Persists</tspan><tspan dy="1.2em" x="0" >outages/state</tspan></text></g><g id="v-3180"  label-idx="1" cursor="move" transform="matrix(1,0,0,1,2329.5,798.4000244140625)" style="cursor: default; opacity: 1;"><rect joint-selector="rect" id="v-3184" fill="#ffffff" rx="3" ry="3"  width="0" height="0" transform="matrix(1,0,0,1,0,0)" display="none"></rect><text joint-selector="text" id="v-3183" fill="#000000" font-size="14" text-anchor="middle" pointer-events="none"></text></g></g><g  display="none" style="display: none;"></g><g  id="v-3189" display="none"><g  id="v-3177"><path  end="source" d="M 26 0 L 0 13 L 26 26 z"></path></g><g  id="v-3178"><path  end="target" d="M 26 0 L 0 13 L 26 26 z"></path></g></g><g  id="v-3188" display="none"><g  id="v-3176" transform="translate(2183.2347523777216, 646.987801902177) "><g  event="remove"><circle r="11"></circle><path transform="scale(.8) translate(-16, -16)" d="M24.778,21.419 19.276,15.917 24.777,10.415 21.949,7.585 16.447,13.087 10.945,7.585 8.117,10.415 13.618,15.917 8.116,21.419 10.946,24.248 16.447,18.746 21.948,24.248z"></path><title>Remove link.</title></g><g  event="link:options"><circle r="11" transform="translate(25)"></circle><path fill="white" transform="scale(.55) translate(29, -16)" d="M31.229,17.736c0.064-0.571,0.104-1.148,0.104-1.736s-0.04-1.166-0.104-1.737l-4.377-1.557c-0.218-0.716-0.504-1.401-0.851-2.05l1.993-4.192c-0.725-0.91-1.549-1.734-2.458-2.459l-4.193,1.994c-0.647-0.347-1.334-0.632-2.049-0.849l-1.558-4.378C17.165,0.708,16.588,0.667,16,0.667s-1.166,0.041-1.737,0.105L12.707,5.15c-0.716,0.217-1.401,0.502-2.05,0.849L6.464,4.005C5.554,4.73,4.73,5.554,4.005,6.464l1.994,4.192c-0.347,0.648-0.632,1.334-0.849,2.05l-4.378,1.557C0.708,14.834,0.667,15.412,0.667,16s0.041,1.165,0.105,1.736l4.378,1.558c0.217,0.715,0.502,1.401,0.849,2.049l-1.994,4.193c0.725,0.909,1.549,1.733,2.459,2.458l4.192-1.993c0.648,0.347,1.334,0.633,2.05,0.851l1.557,4.377c0.571,0.064,1.148,0.104,1.737,0.104c0.588,0,1.165-0.04,1.736-0.104l1.558-4.377c0.715-0.218,1.399-0.504,2.049-0.851l4.193,1.993c0.909-0.725,1.733-1.549,2.458-2.458l-1.993-4.193c0.347-0.647,0.633-1.334,0.851-2.049L31.229,17.736zM16,20.871c-2.69,0-4.872-2.182-4.872-4.871c0-2.69,2.182-4.872,4.872-4.872c2.689,0,4.871,2.182,4.871,4.872C20.871,18.689,18.689,20.871,16,20.871z"></path><title>Link options.</title></g></g></g></g><!--z-index:55--><g   id="j_215" ><path  stroke="#08313f" d="M 2939 1072 L 3239 1072" id="v-3202" stroke-width="2" stroke-dasharray="8 8" fill="none" style="opacity: 1;"></path><path  fill="black" stroke="black" d="M 0 0 0 0" transform="matrix(1,0,0,1,2939,1072)"></path><path  fill="#08313f" stroke="#08313f" d="M 20 0 L 0 10 L 20 20 z" id="v-3204" transform="matrix(-1,1.2246467991473532e-16,-1.2246467991473532e-16,-1,3239,1082)" style="opacity: 1;"></path><path  d="M 2939 1072 L 3239 1072" id="v-3203" fill="none" style="cursor: auto; pointer-events: visiblepainted;"></path><g ><g id="v-3193"  label-idx="0" cursor="move" transform="matrix(1,0,0,1,3089,1058.5999755859375)" style="cursor: default; opacity: 1;"><rect joint-selector="rect" id="v-3197" fill="#111111" rx="3" ry="3" pointer-events="none" width="44.35762023925781" height="32.64299392700195" transform="matrix(1,0,0,1,-22.2,-16.3)"></rect><text joint-selector="text" id="v-3196" font-size="24px" xml:space="preserve" y="0.8em" fill="#08313f" text-anchor="middle" pointer-events="none" font-family="Open Sans, Tahoma, Arial" font-weight="normal" transform="matrix(1,0,0,1,0,-10.2)"><tspan dy="0" >SQL</tspan></text></g><g id="v-3194"  label-idx="1" cursor="move" transform="matrix(1,0,0,1,3089,1089)" style="cursor: default; opacity: 1;"><rect joint-selector="rect" id="v-3199" fill="#111111" rx="3" ry="3"  pointer-events="none" width="49.129024505615234" height="23.16599464416504" transform="matrix(1,0,0,1,-24.6,-11.6)" style="display: block;"></rect><text joint-selector="text" id="v-3198" font-size="16.799999999999997px" xml:space="preserve" y="0.8em" fill="#08313f" text-anchor="middle" pointer-events="none"  font-family="Open Sans, Tahoma, Arial" font-weight="normal" transform="matrix(1,0,0,1,0,-7.1)" style="display: block;"><tspan dy="0" >[JDBC]</tspan></text></g><g id="v-3195"  label-idx="2" cursor="move" transform="matrix(1,0,0,1,3079,1097.4000244140625)" style="cursor: default; opacity: 1;"><rect joint-selector="rect" id="v-3201" fill="#ffffff" rx="3" ry="3"  width="0" height="0" transform="matrix(1,0,0,1,0,0)" display="none"></rect><text joint-selector="text" id="v-3200" fill="#000000" font-size="14" text-anchor="middle" pointer-events="none"></text></g></g><g  display="none" style="display: none;"></g><g  id="v-3206" display="none"><g  id="v-3191"><path  end="source" d="M 26 0 L 0 13 L 26 26 z"></path></g><g  id="v-3192"><path  end="target" d="M 26 0 L 0 13 L 26 26 z"></path></g></g><g  id="v-3205" display="none"><g  id="v-3190" transform="translate(2979, 1072) "><g  event="remove"><circle r="11"></circle><path transform="scale(.8) translate(-16, -16)" d="M24.778,21.419 19.276,15.917 24.777,10.415 21.949,7.585 16.447,13.087 10.945,7.585 8.117,10.415 13.618,15.917 8.116,21.419 10.946,24.248 16.447,18.746 21.948,24.248z"></path><title>Remove link.</title></g><g  event="link:options"><circle r="11" transform="translate(25)"></circle><path fill="white" transform="scale(.55) translate(29, -16)" d="M31.229,17.736c0.064-0.571,0.104-1.148,0.104-1.736s-0.04-1.166-0.104-1.737l-4.377-1.557c-0.218-0.716-0.504-1.401-0.851-2.05l1.993-4.192c-0.725-0.91-1.549-1.734-2.458-2.459l-4.193,1.994c-0.647-0.347-1.334-0.632-2.049-0.849l-1.558-4.378C17.165,0.708,16.588,0.667,16,0.667s-1.166,0.041-1.737,0.105L12.707,5.15c-0.716,0.217-1.401,0.502-2.05,0.849L6.464,4.005C5.554,4.73,4.73,5.554,4.005,6.464l1.994,4.192c-0.347,0.648-0.632,1.334-0.849,2.05l-4.378,1.557C0.708,14.834,0.667,15.412,0.667,16s0.041,1.165,0.105,1.736l4.378,1.558c0.217,0.715,0.502,1.401,0.849,2.049l-1.994,4.193c0.725,0.909,1.549,1.733,2.459,2.458l4.192-1.993c0.648,0.347,1.334,0.633,2.05,0.851l1.557,4.377c0.571,0.064,1.148,0.104,1.737,0.104c0.588,0,1.165-0.04,1.736-0.104l1.558-4.377c0.715-0.218,1.399-0.504,2.049-0.851l4.193,1.993c0.909-0.725,1.733-1.549,2.458-2.458l-1.993-4.193c0.347-0.647,0.633-1.334,0.851-2.049L31.229,17.736zM16,20.871c-2.69,0-4.872-2.182-4.872-4.871c0-2.69,2.182-4.872,4.872-4.872c2.689,0,4.871,2.182,4.871,4.872C20.871,18.689,18.689,20.871,16,20.871z"></path><title>Link options.</title></g></g></g></g><!--z-index:56--><!--z-index:57--><!--z-index:58--><!--z-index:59--><!--z-index:60--><!--z-index:61--><!--z-index:62--><!--z-index:63--><!--z-index:64--><!--z-index:65--><!--z-index:66--><!--z-index:67--><!--z-index:68--><!--z-index:69--><!--z-index:70--><!--z-index:71--><!--z-index:72--><!--z-index:73--><!--z-index:74--><!--z-index:75--><!--z-index:76--><!--z-index:77--><!--z-index:78--><!--z-index:79--><!--z-index:80--><!--z-index:81--><!--z-index:82--><!--z-index:83--><!--z-index:84--><!--z-index:85--><!--z-index:86--><!--z-index:87--><!--z-index:88--><!--z-index:89--><!--z-index:90--><!--z-index:91--><!--z-index:92--><!--z-index:93--><!--z-index:94--><!--z-index:95--><!--z-index:96--><!--z-index:97--><!--z-index:98--><!--z-index:99--><!--z-index:100--><!--z-index:101--><!--z-index:102--><!--z-index:103--><!--z-index:104--><!--z-index:105--><!--z-index:106--><!--z-index:107--><!--z-index:108--><!--z-index:109--><!--z-index:110--><!--z-index:111--><!--z-index:112--><!--z-index:113--><!--z-index:114--><!--z-index:115--><!--z-index:116--><!--z-index:117--><!--z-index:118--><!--z-index:119--><!--z-index:120--><!--z-index:121--><!--z-index:122--><!--z-index:123--><!--z-index:124--><!--z-index:125--><!--z-index:126--><!--z-index:127--><!--z-index:128--><!--z-index:129--><!--z-index:130--><!--z-index:131--><!--z-index:132--><!--z-index:133--><!--z-index:134--><!--z-index:135--><!--z-index:136--><!--z-index:137--><!--z-index:138--><!--z-index:139--><!--z-index:140--><!--z-index:141--><!--z-index:142--><!--z-index:143--><!--z-index:144--><!--z-index:145--><!--z-index:146--><!--z-index:147--><!--z-index:148--><!--z-index:149--><!--z-index:150--><!--z-index:151--><!--z-index:152--><!--z-index:153--><!--z-index:154--><!--z-index:155--><!--z-index:156--><!--z-index:157--><!--z-index:158--><!--z-index:159--><!--z-index:160--><!--z-index:161--><!--z-index:162--><!--z-index:163--><!--z-index:164--><!--z-index:165--><!--z-index:166--><!--z-index:167--><!--z-index:168--><!--z-index:169--><!--z-index:170--><!--z-index:171--><!--z-index:172--><!--z-index:173--><!--z-index:174--><!--z-index:175--><!--z-index:176--><!--z-index:177--><!--z-index:178--><!--z-index:179--><!--z-index:180--><!--z-index:181--><!--z-index:182--><!--z-index:183--><!--z-index:184--><!--z-index:185--><!--z-index:186--><!--z-index:187--><!--z-index:188--><!--z-index:189--><!--z-index:190--><!--z-index:191--><!--z-index:192--><!--z-index:193--><!--z-index:194--><!--z-index:195--><!--z-index:196--><!--z-index:197--><!--z-index:198--><!--z-index:199--><!--z-index:200--><!--z-index:201--><!--z-index:202--><!--z-index:203--><!--z-index:204--><!--z-index:205--><!--z-index:206--><!--z-index:207--><!--z-index:208--><!--z-index:209--><!--z-index:210--><!--z-index:211--><!--z-index:212--><!--z-index:213--><!--z-index:214--><!--z-index:215--><!--z-index:216--><!--z-index:217--><!--z-index:218--><!--z-index:219--><!--z-index:220--><!--z-index:221--><!--z-index:222--><!--z-index:223--><!--z-index:224--><!--z-index:225--><!--z-index:226--><!--z-index:227--><!--z-index:228--><!--z-index:229--><!--z-index:230--><!--z-index:231--><!--z-index:232--><!--z-index:233--><!--z-index:234--><!--z-index:235--><!--z-index:236--><!--z-index:237--><!--z-index:238--><!--z-index:239--><!--z-index:240--><!--z-index:241--><!--z-index:242--><!--z-index:243--><!--z-index:244--><!--z-index:245--><!--z-index:246--><!--z-index:247--><!--z-index:248--><!--z-index:249--><!--z-index:250--><!--z-index:251--><!--z-index:252--><!--z-index:253--><!--z-index:254--><!--z-index:255--><!--z-index:256--><!--z-index:257--><!--z-index:258--><!--z-index:259--><!--z-index:260--><!--z-index:261--><!--z-index:262--><!--z-index:263--><!--z-index:264--><!--z-index:265--><!--z-index:266--><!--z-index:267--><!--z-index:268--><!--z-index:269--><!--z-index:270--><!--z-index:271--><!--z-index:272--><!--z-index:273--><!--z-index:274--><!--z-index:275--><!--z-index:276--><!--z-index:277--><!--z-index:278--><!--z-index:279--><!--z-index:280--><!--z-index:281--><!--z-index:282--><!--z-index:283--><!--z-index:284--><!--z-index:285--><!--z-index:286--><!--z-index:287--><!--z-index:288--></g><g ></g><g ></g><g ></g></g></svg>